<svg xmlns="http://www.w3.org/2000/svg" width="30" height="30" viewBox="0 0 30 30"><path fill="#FFF" d="M28.24 11.903l-2.07-.35c-.216-.697-.493-1.37-.832-2.01l1.22-1.707c.517-.727.438-1.72-.198-2.348l-1.836-1.836c-.344-.345-.8-.536-1.288-.536-.382 0-.746.117-1.053.34l-1.713 1.22c-.666-.352-1.363-.642-2.084-.858l-.345-2.046C17.9.892 17.14.25 16.24.25h-2.59c-.893 0-1.652.64-1.8 1.522l-.356 2.096c-.69.216-1.36.5-2 .844L7.8 3.492c-.308-.223-.678-.34-1.06-.34-.486 0-.95.192-1.288.537l-1.85 1.83c-.63.63-.714 1.62-.196 2.34L4.638 9.6c-.34.65-.61 1.32-.82 2.018l-2.046.344c-.88.148-1.522.906-1.522 1.8v2.593c0 .895.64 1.653 1.522 1.8l2.096.358c.216.69.5 1.36.844 2.003l-1.214 1.687c-.518.727-.438 1.72.197 2.348l1.837 1.84c.345.35.8.54 1.287.54.38 0 .74-.12 1.05-.34l1.73-1.23c.62.33 1.27.6 1.94.81l.34 2.07c.15.88.904 1.524 1.8 1.524h2.6c.892 0 1.65-.64 1.8-1.523l.35-2.07c.7-.22 1.37-.496 2.01-.835l1.705 1.22c.307.224.677.34 1.06.34.486 0 .942-.19 1.287-.535l1.84-1.84c.626-.63.712-1.62.195-2.35l-1.22-1.716c.336-.647.62-1.32.83-2.01l2.07-.344c.88-.147 1.522-.906 1.522-1.8v-2.6c.01-.892-.63-1.65-1.51-1.8zm-.14 4.394c0 .08-.057.148-.137.16l-2.588.432c-.326.05-.586.29-.666.61-.24.9-.6 1.77-1.08 2.58-.17.28-.16.63.03.9l1.52 2.14c.04.06.032.15-.02.21l-1.84 1.83c-.042.042-.085.05-.116.05-.034 0-.07-.01-.09-.03l-2.14-1.526c-.26-.19-.62-.2-.903-.036-.805.48-1.674.84-2.58 1.07-.32.084-.56.35-.61.67l-.44 2.59c-.01.08-.08.135-.16.135H13.7c-.08 0-.147-.057-.16-.137l-.43-2.588c-.056-.326-.297-.586-.61-.667-.88-.223-1.73-.58-2.525-1.03-.13-.07-.278-.11-.42-.11-.166 0-.338.05-.48.155L6.92 25.25c-.033.02-.063.03-.094.03-.025 0-.075-.004-.118-.047l-1.836-1.836c-.055-.056-.06-.142-.02-.21l1.518-2.125c.19-.273.203-.63.036-.912-.48-.802-.85-1.67-1.084-2.578-.086-.313-.345-.553-.665-.61L2.05 16.52c-.08-.013-.136-.08-.136-.16v-2.595c0-.08.055-.148.136-.16l2.57-.432c.326-.056.59-.296.67-.616.23-.907.58-1.78 1.055-2.59.167-.282.148-.634-.043-.9L4.767 6.913c-.042-.062-.036-.155.02-.21L6.62 4.866c.043-.044.086-.05.117-.05.036 0 .067.013.092.032l2.12 1.515c.27.19.62.204.91.037.8-.48 1.67-.85 2.57-1.085.31-.086.55-.344.61-.665l.44-2.607c.01-.08.08-.135.16-.135h2.593c.08 0 .15.056.16.136l.43 2.57c.057.325.297.59.617.67.93.235 1.817.6 2.643 1.086.28.166.632.153.904-.037l2.124-1.53c.03-.017.06-.03.095-.03.025 0 .075.007.117.05l1.84 1.837c.057.053.06.14.02.206l-1.522 2.14c-.19.264-.203.622-.036.905.48.81.84 1.68 1.07 2.59.084.32.35.56.67.61l2.59.44c.08.02.132.08.132.16v2.59zm0 0"/><path fill="#fff" d="M15.003 8.63c-3.512 0-6.366 2.854-6.366 6.367s2.854 6.366 6.366 6.366c3.513 0 6.366-2.853 6.366-6.366S18.51 8.63 15 8.63zm0 11.068c-2.594 0-4.702-2.107-4.702-4.7 0-2.596 2.11-4.704 4.71-4.704s4.7 2.108 4.7 4.703c0 2.594-2.1 4.7-4.7 4.7zm0 0"/></svg>