<svg xmlns="http://www.w3.org/2000/svg" width="30" height="30" viewBox="0 0 30 30"><path fill="#FFF" d="M26.338 3.443H3.668C1.644 3.443 0 5.087 0 7.11v15.494c0 2.024 1.645 3.67 3.668 3.67h22.66c2.027 0 3.672-1.646 3.672-3.67V7.118c.006-2.024-1.64-3.674-3.662-3.674zm1.992 19.162c0 1.098-.894 1.992-1.992 1.992H3.668c-1.1 0-1.992-.894-1.992-1.992V7.117c0-1.098.893-1.992 1.992-1.992h22.66c1.1 0 1.995.894 1.995 1.992v15.488h.007zm0 0"/><path fill="#FFF" d="M18.92 14.665l7.336-6.58c.342-.31.373-.838.06-1.185-.31-.342-.837-.373-1.183-.062l-10.118 9.08-1.974-1.762c0-.006-.01-.012-.01-.018-.04-.044-.08-.08-.13-.12L4.86 6.832c-.348-.31-.875-.278-1.186.07-.31.348-.28.875.07 1.186l7.422 6.635-7.392 6.923c-.336.316-.354.843-.037 1.185.168.18.39.27.614.27.21 0 .41-.07.58-.22l7.508-7.02 2.035 1.82c.16.147.36.21.56.21.198 0 .403-.07.558-.213l2.09-1.876 7.46 7.09c.163.154.374.23.58.23.22 0 .438-.09.605-.26.32-.337.306-.87-.03-1.187l-7.37-6.995zm0 0"/></svg>