<svg xmlns="http://www.w3.org/2000/svg" width="30" height="30" viewBox="0 0 30 30"><path fill="#666666" d="M27.494 2.812h-4.06V.936c0-.516-.42-.937-.937-.937-.52 0-.938.42-.938.93v1.88h-5.63V.93c0-.512-.42-.933-.94-.933s-.94.42-.94.93v1.88H8.43V.932C8.436.42 8.016 0 7.5 0s-.936.42-.936.936v1.88h-4.06C1.12 2.816 0 3.936 0 5.316V27.5C0 28.88 1.12 30 2.5 30h24.992c1.386 0 2.503-1.12 2.503-2.504V5.313c0-1.38-1.117-2.5-2.5-2.5h-.003zm.626 24.68c0 .346-.28.632-.624.632H2.51c-.347 0-.626-.28-.626-.627V5.314c0-.346.28-.623.625-.623h4.06v1.88c0 .52.42.938.93.938.52 0 .932-.422.932-.94v-1.88h5.626V6.56c0 .52.42.938.94.938s.934-.42.934-.937V4.69h5.62v1.87c0 .52.42.938.938.938.52 0 .936-.42.936-.937V4.69h4.06c.346 0 .622.282.622.626V27.5z"/><path fill="#333" d="M6.564 11.247h3.75v2.813h-3.75v-2.813zm0 4.685h3.75v2.812h-3.75v-2.812zm0 4.688h3.75v2.812h-3.75V20.62zm6.56 0h3.75v2.812h-3.75V20.62zm0-4.688h3.75v2.812h-3.75v-2.812zm0-4.685h3.75v2.813h-3.75v-2.813zm6.562 9.373h3.75v2.812h-3.75V20.62zm0-4.688h3.75v2.812h-3.75v-2.812zm0-4.685h3.75v2.813h-3.75v-2.813z"/></svg>