<svg xmlns="http://www.w3.org/2000/svg" width="30" height="30" viewBox="0 0 30 30"><path fill="#666666" d="M6.21 30h17.58c1.453 0 2.636-1.183 2.636-2.637V7.91c0-1.454-1.183-2.637-2.637-2.637h-1.91c-.366-1.022-1.34-1.757-2.49-1.757h-.878C18.512 1.576 16.938 0 15 0s-3.516 1.577-3.516 3.516h-.878c-1.146 0-2.123.735-2.486 1.757H6.21c-1.453 0-2.636 1.183-2.636 2.637v19.453C3.574 28.817 4.757 30 6.21 30m4.395-24.727h1.92c.607 0 1.03-.602.827-1.173-.074-.21-.11-.4-.11-.584 0-.97.79-1.758 1.758-1.758.97 0 1.758.788 1.758 1.758 0 .184-.036.375-.11.584-.205.572.22 1.173.827 1.173h1.92c.484 0 .878.394.878.88s-.394.878-.88.878h-8.788c-.485 0-.88-.39-.88-.874s.396-.88.88-.88zM5.332 7.91c0-.485.394-.88.88-.88H8.12c.363 1.024 1.34 1.76 2.485 1.76h8.79c1.145 0 2.123-.736 2.485-1.76h1.91c.484 0 .878.395.878.88v19.453c0 .485-.394.88-.88.88H6.212c-.484 0-.878-.395-.878-.88V7.91z"/><path fill="#333" d="M15 14.063h7.03c.487 0 .88-.394.88-.88s-.394-.878-.88-.878H15c-.485 0-.88.393-.88.88s.395.877.88.877m-5.895-.257c.172.172.397.257.622.257s.45-.085.62-.257l1.76-1.758c.342-.343.342-.9 0-1.243s-.9-.343-1.244 0L9.727 11.94 8.59 10.804c-.343-.343-.9-.343-1.243 0s-.343.9 0 1.243l1.758 1.758M15 19.335h7.03c.487 0 .88-.393.88-.88s-.394-.877-.88-.877H15c-.485 0-.88.394-.88.88s.395.878.88.878m-5.895-.258c.172.172.397.258.622.258s.45-.086.62-.258l1.76-1.758c.342-.343.342-.9 0-1.242-.344-.344-.9-.344-1.244 0l-1.136 1.136-1.137-1.136c-.343-.344-.9-.344-1.243 0-.343.343-.343.9 0 1.242l1.758 1.758M15 24.61h7.03c.487 0 .88-.394.88-.88s-.394-.878-.88-.878H15c-.485 0-.88.393-.88.878s.395.88.88.88m-5.895-.258c.172.172.397.257.622.257s.45-.09.62-.26l1.76-1.76c.342-.343.342-.9 0-1.24-.344-.345-.9-.345-1.244 0l-1.136 1.134L8.59 21.35c-.343-.343-.9-.343-1.243 0-.343.343-.343.9 0 1.243l1.758 1.758"/></svg>