<svg xmlns="http://www.w3.org/2000/svg" width="30" height="30" viewBox="0 0 30 30"><path fill="#fff" d="M21.278 17.926h-4.054c-1.11 0-2.01.9-2.01 2.012v3.106c0 1.11.9 2.013 2.01 2.013h4.054c1.11 0 2.01-.903 2.01-2.013v-3.106c0-1.11-.9-2.012-2.01-2.012zm.548 5.118c0 .305-.25.548-.548.548h-4.054c-.305 0-.548-.248-.548-.548v-3.106c0-.306.25-.55.548-.55h4.054c.305 0 .548.25.548.55v3.106zm0 0"/><path fill="#fff" d="M29.914 12.275c0-.128-.03-.25-.098-.36l-4.437-7.8c-.13-.227-.38-.373-.64-.373H5.25c-.262 0-.506.14-.634.372l-4.43 7.8c-.062.11-.1.233-.1.36 0 1.75 1.056 3.25 2.562 3.915v12.86c0 .4.328.73.73.73h23.24c.403 0 .732-.33.732-.73V16.28c0-.03 0-.055-.006-.08 1.512-.664 2.572-2.17 2.572-3.925zM5.674 5.21H24.32l3.466 6.102H2.213l3.462-6.1zm15.64 7.558c-.232 1.316-1.383 2.317-2.767 2.317s-2.535-1-2.768-2.317h5.53zm-7.088 0c-.232 1.316-1.384 2.317-2.767 2.317-1.39 0-2.54-1-2.78-2.317h5.54zm-12.63 0h5.54c-.23 1.316-1.388 2.317-2.772 2.317-1.383.006-2.535-1-2.767-2.317zm10.777 15.555H8.168V20.43c0-.573.462-1.042 1.04-1.042h2.128c.574 0 1.043.463 1.043 1.043v7.9h-.01zm13.512 0h-12.05V20.43c0-1.378-1.12-2.504-2.505-2.504H9.205c-1.378 0-2.506 1.12-2.506 2.505v7.9H4.11V16.55c.084.005.17.005.255.005 1.475 0 2.78-.75 3.547-1.89.77 1.14 2.073 1.89 3.55 1.89 1.473 0 2.772-.75 3.546-1.89.768 1.14 2.072 1.89 3.54 1.89 1.476 0 2.774-.75 3.542-1.89.768 1.14 2.073 1.89 3.547 1.89.085 0 .165-.007.25-.007v11.776zm-.25-13.232c-1.383 0-2.535-1-2.767-2.31h5.54c-.237 1.31-1.39 2.32-2.773 2.32zm0 0"/></svg>