<svg xmlns="http://www.w3.org/2000/svg" width="30" height="30" viewBox="0 0 30 30"><path fill="#fff" d="M18.26 14.25h-6.31c-7.945 0-8.764 11.814-8.03 12.568C5.905 28.688 10.217 30 15.17 30c4.955 0 9.03-1.248 10.884-3.002.75-.634.143-12.747-7.793-12.747zm6.058 10.996c-1.483 1.38-5.072 2.244-9.148 2.244-4.074 0-7.66-.876-9.146-2.244-.115-.372.575-8.62 6.058-8.62h6.31c5.433-.012 6.06 8.237 5.93 8.62h-.004zm-9.265-11.75c3.706 0 6.807-3.005 6.676-6.75C21.73 3 18.76 0 15.05 0c-3.704 0-6.675 3-6.675 6.745 0 3.746 2.957 6.75 6.675 6.75zm0-10.998c2.468 0 4.323 1.872 4.323 4.247 0 2.38-1.983 4.252-4.324 4.252-2.34 0-4.336-1.873-4.336-4.252 0-2.376 1.984-4.248 4.336-4.248z"/></svg>