<svg xmlns="http://www.w3.org/2000/svg" width="30" height="30" viewBox="0 0 30 30"><path fill="#666666" d="M20.852 0h-15.1C4.74 0 3.914.827 3.914 1.84v26.318c0 1.015.826 1.842 1.838 1.842h18.496c1.014 0 1.838-.825 1.838-1.84V5.69L20.854.002 20.852 0zm.433 2.753l2.297 2.494h-2.297V2.754zM24.54 28.16c0 .162-.13.296-.294.296H5.752c-.16 0-.294-.134-.294-.295V1.84c0-.162.132-.294.294-.294h13.986V6.02c0 .428.35.772.774.772h4.03v21.37zM8.185 8.217h13.12c.317 0 .575.26.575.58 0 .315-.26.577-.577.577H8.183c-.32 0-.58-.262-.58-.578 0-.322.26-.582.58-.582v.003zm13.695 4.47c0 .318-.26.576-.577.576H8.183c-.32.002-.58-.258-.58-.577s.26-.577.58-.577H21.3c.32-.005.577.255.577.574h.002zm0 3.76c0 .32-.26.58-.577.58H8.183c-.32 0-.58-.26-.58-.58s.26-.58.58-.58H21.3c.32 0 .577.262.577.58h.002zm0 3.827c0 .32-.26.58-.577.58H8.183c-.32 0-.58-.263-.58-.582 0-.32.26-.58.58-.58H21.3c.32 0 .577.26.577.58l.002.003z"/></svg>