<svg xmlns="http://www.w3.org/2000/svg" width="30" height="30" viewBox="0 0 30 30"><path fill="#FFF" d="M15.18 16.21c-2.11 0-3.828 1.337-3.828 2.98 0 .814.435 1.6 1.194 2.16v2.69c0 1.128 1.18 2.046 2.633 2.046s2.63-.918 2.63-2.047v-2.69C18.57 20.79 19 20 19 19.19c0-1.646-1.717-2.98-3.826-2.98m1.352 4.094c-.365.267-.575.642-.575 1.027v2.71c0 .33-.35.607-.78.607-.43 0-.772-.273-.772-.605v-2.71c0-.383-.21-.76-.575-1.025-.4-.293-.62-.69-.62-1.117 0-.848.886-1.536 1.974-1.536 1.086 0 1.972.69 1.972 1.54 0 .43-.22.826-.62 1.12z"/><path fill="#FFF" d="M26.398 12.298H23.62v-5.73C23.62 2.945 19.833 0 15.18 0c-4.655 0-8.44 2.946-8.44 6.567v5.73H3.957c-1.532 0-2.78.97-2.78 2.164v13.38C1.18 29.03 2.427 30 3.96 30H26.4c1.534 0 2.78-.97 2.78-2.162V14.46c0-1.192-1.246-2.162-2.78-2.162M8.592 6.568c0-2.826 2.954-5.125 6.587-5.125 3.63 0 6.58 2.3 6.58 5.124v5.73H8.59v-5.73zm18.733 21.27c0 .396-.415.72-.927.72H3.958c-.51 0-.926-.324-.926-.72V14.46c0-.397.416-.72.927-.72h22.43c.51 0 .925.323.925.72v13.38z"/></svg>