<svg xmlns="http://www.w3.org/2000/svg" width="30" height="30" viewBox="0 0 30 30"><g fill="#fff"><path d="M10.337 14.04H3.385v5.233h6.952V14.04zM9.057 18h-4.4v-2.68h4.4V18zm1.218 4.468h12.503v1.28H10.275z"/><path d="M27.05 1.92H6.74c-1.6 0-2.94 1.34-2.94 2.937V9.77h-.86C1.34 9.77 0 11.11 0 12.706v12.437c0 1.596 1.34 2.937 2.938 2.937h20.93c1.597 0 2.938-1.34 2.938-3v-4.85h.257c1.597 0 2.937-1.34 2.937-2.997V4.857c-.013-1.596-1.352-2.937-2.95-2.937zM6.74 3.2h20.31c.893 0 1.66.764 1.66 1.657v1.28H5.08v-1.28c0-.893.764-1.658 1.658-1.658zm18.78 21.88c0 .895-.765 1.66-1.658 1.66H2.938c-.894 0-1.66-.765-1.66-1.66V12.7c0-.893.766-1.658 1.66-1.658h20.93c.894 0 1.658.765 1.658 1.658v12.38h-.006zm1.53-6.122h-.257v-6.252c0-1.597-1.34-2.937-2.938-2.937H5.08V7.41h23.63v9.89c0 .893-.767 1.658-1.66 1.658zm0 0"/></g></svg>