<svg xmlns="http://www.w3.org/2000/svg" width="30" height="30" viewBox="0 0 30 30"><path fill="#fff" d="M4.317 6.864c.38.306.936.244 1.24-.136C8.09 3.572 11.85 1.764 15.88 1.764c4.032 0 7.79 1.808 10.323 4.964.177.217.435.33.692.33.195 0 .39-.064.55-.194.38-.305.442-.86.136-1.24C24.72 2.05 20.45 0 15.88 0c-4.565 0-8.83 2.05-11.7 5.62-.303.38-.24.936.138 1.24zM19.412 19.41c.487 0 .883-.393.883-.882v-6.176h1.764c.48 0 .88-.395.88-.882 0-.488-.4-.883-.89-.883h-5.29c-.488 0-.883.395-.883.883 0 .487.394.882.882.882h1.764v6.176c0 .49.396.883.882.883zm-9.706-6.175v3.528c0 1.46 1.188 2.648 2.648 2.648 1.46 0 2.647-1.18 2.647-2.64v-3.53c0-1.46-1.18-2.65-2.64-2.65-1.46 0-2.65 1.19-2.65 2.65zm3.53 0v3.528c0 .49-.395.884-.882.884-.488 0-.883-.395-.883-.884v-3.528c0-.488.4-.883.89-.883s.88.395.88.883zM25.48 24.1c-2.53 2.665-5.94 4.133-9.596 4.133S8.82 26.767 6.29 24.1c-.334-.357-.893-.37-1.248-.035-.354.336-.37.893-.033 1.246C7.87 28.34 11.73 30 15.88 30c4.147 0 8.01-1.664 10.88-4.69.333-.35.32-.91-.033-1.244s-.914-.322-1.25.034zm2.755-6.452h-2.647V15.88h.884c.487 0 .88-.394.88-.88 0-.488-.393-.883-.88-.883h-.884v-1.765h2.647c.488 0 .882-.395.882-.882 0-.488-.394-.883-.882-.883h-3.53c-.486 0-.88.395-.88.883v7.06c0 .487.394.88.88.88h3.53c.488 0 .882-.393.882-.88 0-.488-.394-.883-.882-.883zM5.238 18.84l2.647-7.06c.17-.456-.06-.965-.515-1.136-.46-.17-.966.06-1.136.515l-1.82 4.85-1.824-4.85c-.17-.46-.678-.688-1.136-.52-.455.17-.685.68-.514 1.136l2.647 7.06c.13.344.46.57.826.57.366 0 .696-.226.825-.57zm0 0"/></svg>