<?xml version="1.0" encoding="utf-8"?>
<!-- Generator: Adobe Illustrator 16.0.0, SVG Export Plug-In . SVG Version: 6.00 Build 0)  -->
<!DOCTYPE svg PUBLIC "-//W3C//DTD SVG 1.1//EN" "http://www.w3.org/Graphics/SVG/1.1/DTD/svg11.dtd">
<svg version="1.1" id="Layer_1" xmlns="http://www.w3.org/2000/svg" xmlns:xlink="http://www.w3.org/1999/xlink" x="0px" y="0px"
	 width="30px" height="30px" viewBox="0 0 30 30" enable-background="new 0 0 30 30" xml:space="preserve">
<g>
	<path fill="#FFFFFF" d="M6.2739,18.1084h3.4844c0.5938,0,1.0591-0.4639,1.0591-1.0576s-0.4653-1.0332-1.0591-1.0332H6.2739
		c-0.5933,0-1.0586,0.4648-1.0586,1.0586S5.7056,18.1084,6.2739,18.1084L6.2739,18.1084z M6.2739,18.1084"/>
	<path fill="#FFFFFF" d="M28.9414,4.9165H1.084c-0.5933,0-1.0586,0.4653-1.0586,1.0591v6.583C0,12.6367,0,12.7134,0,12.79
		c0,0.0786,0,0.1553,0.0254,0.2334v11.7207c0,0.5938,0.4653,1.0586,1.0586,1.0586h27.8574c0.5938,0,1.0586-0.4648,1.0586-1.0586
		V5.9756C30,5.4072,29.5352,4.9165,28.9414,4.9165L28.9414,4.9165z M27.8818,23.7109H2.1431v-9.8618h25.7388V23.7109z
		 M27.8818,11.7578H2.1431V7.0332h25.7388V11.7578z M27.8818,11.7578"/>
</g>
</svg>
