<?xml version="1.0" encoding="utf-8"?>
<!-- Generator: Adobe Illustrator 16.0.0, SVG Export Plug-In . SVG Version: 6.00 Build 0)  -->
<!DOCTYPE svg PUBLIC "-//W3C//DTD SVG 1.1//EN" "http://www.w3.org/Graphics/SVG/1.1/DTD/svg11.dtd">
<svg version="1.1" id="Layer_1" xmlns="http://www.w3.org/2000/svg" xmlns:xlink="http://www.w3.org/1999/xlink" x="0px" y="0px"
	 width="30px" height="30px" viewBox="0 0 30 30" enable-background="new 0 0 30 30" xml:space="preserve">
<g>
	<path fill="#FFFFFF" d="M28.9414,5.5444H1.084c-0.5933,0-1.0586,0.4648-1.0586,1.0586v6.5835C0,13.2646,0,13.3413,0,13.418
		c0,0.0786,0,0.1553,0.0254,0.2334v9.4609c0,0.5938,0.4653,1.0576,1.0586,1.0576h27.8574c0.5938,0,1.0586-0.4639,1.0586-1.0576
		V6.603C30,6.0347,29.5352,5.5444,28.9414,5.5444L28.9414,5.5444z M27.8818,12.3857L27.8818,12.3857L27.8818,12.3857
		L27.8818,12.3857v9.6924H2.1431V7.6611h25.7388V12.3857 M27.8818,12.3857"/>
</g>
<path fill="#FFFFFF" d="M4.9014,13.7334h13.4971c0.5938,0,1.0586-0.4639,1.0586-1.0576s-0.4648-1.0337-1.0586-1.0337H4.9014
	c-0.5933,0-1.0586,0.4648-1.0586,1.0586S4.333,13.7334,4.9014,13.7334L4.9014,13.7334z M4.9014,13.7334"/>
<path fill="#FFFFFF" d="M3.9014,18.2549h13.4971c0.5938,0,1.0586-0.4639,1.0586-1.0576s-0.4648-1.0332-1.0586-1.0332H3.9014
	c-0.5933,0-1.0586,0.4648-1.0586,1.0586S3.333,18.2549,3.9014,18.2549L3.9014,18.2549z M3.9014,18.2549"/>
<path fill="#FFFFFF" d="M21.4502,13.7334h2.8379c0.5938,0,1.0596-0.4639,1.0596-1.0576s-0.4658-1.0337-1.0596-1.0337h-2.8379
	c-0.5938,0-1.0596,0.4648-1.0596,1.0586S20.8818,13.7334,21.4502,13.7334L21.4502,13.7334z M21.4502,13.7334"/>
</svg>
