<svg xmlns="http://www.w3.org/2000/svg" width="30" height="30" viewBox="0 0 30 30"><path fill="#737373" d="M29.456 14.613c-1.68-2.154-3.857-3.936-6.295-5.153C20.68 8.218 18 7.573 15.208 7.54c-.077-.003-.385-.003-.463 0-2.794.033-5.47.678-7.96 1.92C4.347 10.677 2.17 12.458.49 14.613c-.647.83-.647 1.99 0 2.82 1.68 2.157 3.856 3.937 6.294 5.157 2.488 1.242 5.165 1.887 7.96 1.92.076.002.385.002.462 0 2.794-.033 5.47-.678 7.96-1.92 2.437-1.22 4.614-3 6.294-5.154.647-.83.647-1.99 0-2.82m-14.486 8.68c-4.005 0-7.27-3.263-7.27-7.27 0-4.01 3.265-7.27 7.27-7.27 4.01 0 7.27 3.26 7.27 7.27 0 4.007-3.26 7.27-7.27 7.27zM7.327 21.5c-2.277-1.137-4.308-2.8-5.88-4.814-.3-.39-.3-.933 0-1.32 1.57-2.014 3.603-3.678 5.88-4.815.647-.32 1.307-.6 1.98-.84-1.73 1.56-2.82 3.81-2.82 6.318s1.09 4.758 2.82 6.313c-.673-.236-1.333-.516-1.98-.84zM28.5 16.686c-1.57 2.013-3.603 3.677-5.88 4.814-.645.322-1.305.6-1.976.836 1.73-1.555 2.818-3.81 2.818-6.31 0-2.505-1.09-4.76-2.82-6.313.674.237 1.334.517 1.98.84 2.277 1.136 4.31 2.8 5.88 4.813.302.39.302.932 0 1.32z"/><path fill="#b1b0b0" d="M14.97 12.912c-1.714 0-3.11 1.396-3.11 3.11 0 1.716 1.396 3.113 3.11 3.113 1.717 0 3.112-1.397 3.112-3.112s-1.396-3.11-3.11-3.11m0 5.003c-1.044 0-1.894-.848-1.894-1.893 0-1.043.85-1.893 1.893-1.893 1.05 0 1.898.85 1.898 1.893 0 1.045-.848 1.893-1.892 1.893z"/></svg>