<svg xmlns="http://www.w3.org/2000/svg" width="30" height="30" viewBox="0 0 30 30"><path fill="#FFF" d="M17.826 16.068h-5.468c-6.887 0-7.597 10.238-6.96 10.892 1.72 1.622 5.457 2.758 9.75 2.758s7.826-1.082 9.432-2.602c.65-.55.124-11.048-6.754-11.048zm5.25 9.53c-1.286 1.196-4.396 1.945-7.928 1.945s-6.64-.76-7.927-1.946c-.1-.322.498-7.47 5.25-7.47h5.47c4.707-.01 5.25 7.138 5.14 7.47zm-8.03-10.185c3.212 0 5.9-2.603 5.786-5.85 0-3.244-2.574-5.845-5.787-5.845-3.21 0-5.785 2.6-5.785 5.846s2.563 5.85 5.785 5.85zm0-9.53c2.14 0 3.747 1.622 3.747 3.68 0 2.062-1.72 3.685-3.748 3.685-2.028 0-3.758-1.623-3.758-3.684 0-2.06 1.72-3.682 3.758-3.682zm0 0" /></svg>