<svg xmlns="http://www.w3.org/2000/svg" width="30" height="30" viewBox="0 0 30 30"><path fill="#737373" d="M19.087 26.25c.52 0 .938-.42.938-.938v-11.25c0-.518-.42-.938-.938-.938-.517 0-.937.42-.937.938v11.25c0 .518.42.938.937.938zm5.626-22.5h-5.626V1.875C19.087.84 18.25 0 17.213 0h-5.625c-1.036 0-1.875.84-1.875 1.875V3.75H4.088c-1.036 0-1.875.84-1.875 1.875V7.5c0 1.035.84 1.875 1.875 1.875V26.25c0 2.07 1.68 3.75 3.75 3.75h13.125c2.07 0 3.75-1.68 3.75-3.75V9.374c1.035 0 1.875-.84 1.875-1.875V5.622c0-1.035-.84-1.874-1.875-1.874zm-13.125-.938c0-.517.42-.938.937-.938h3.75c.518 0 .938.42.938.938v.938h-5.625v-.94zm11.25 23.438c0 1.035-.84 1.875-1.875 1.875H7.838c-1.036 0-1.875-.84-1.875-1.875V9.374h16.875V26.25zm.937-18.75H5.025c-.517 0-.937-.42-.937-.937 0-.52.42-.938.937-.938h18.75c.517 0 .938.42.938.938 0 .516-.42.937-.938.937zM9.713 26.25c.518 0 .937-.42.937-.938v-11.25c0-.518-.42-.938-.937-.938s-.938.42-.938.938v11.25c0 .518.42.938.938.938zm4.687 0c.517 0 .938-.42.938-.938v-11.25c0-.518-.42-.938-.938-.938s-.937.42-.937.938v11.25c0 .518.42.938.937.938zm0 0"/></svg>