<svg xmlns="http://www.w3.org/2000/svg" width="30" height="30" viewBox="0 0 30 30"><g fill="#fff"><path d="M26.338 3.584H3.668C1.648 3.584 0 5.23 0 7.254V22.75c0 2.023 1.645 3.668 3.67 3.668h22.66c2.023 0 3.668-1.644 3.668-3.668V7.26c.006-2.024-1.64-3.675-3.662-3.675zm1.992 19.163c0 1.1-.892 1.992-1.992 1.992H3.668c-1.098 0-1.99-.897-1.99-1.996V7.26c0-1.1.892-1.993 1.99-1.993h22.664c1.098 0 1.992.894 1.992 1.992v15.484h.006zm0 0"/><path d="M18.92 14.808l7.338-6.58c.342-.31.373-.838.062-1.185-.31-.342-.838-.373-1.185-.063l-10.12 9.082-1.973-1.763c-.006-.01-.013-.017-.013-.02-.047-.047-.09-.08-.14-.12L4.86 6.973c-.346-.31-.874-.28-1.185.068-.31.348-.28.876.07 1.186l7.423 6.634-7.394 6.92c-.335.32-.353.846-.037 1.187.168.174.392.267.614.267.21 0 .415-.074.576-.223l7.505-7.02 2.035 1.818c.162.143.36.21.56.21s.403-.074.557-.216l2.094-1.874 7.463 7.088c.16.156.37.23.575.23.226 0 .442-.086.61-.26.317-.336.303-.87-.03-1.186l-7.37-6.995zm0 0"/></g></svg>