<svg xmlns="http://www.w3.org/2000/svg" width="30" height="30" viewBox="0 0 30 30"><path fill="#FFF" d="M30 17.142c0 .583-.215 1.083-.638 1.506-.426.426-.927.637-1.506.637h-8.573v8.57c0 .583-.21 1.084-.636 1.508-.422.425-.924.637-1.504.637h-4.286c-.58 0-1.084-.212-1.507-.637-.424-.424-.636-.926-.636-1.507v-8.57H2.142c-.58 0-1.082-.212-1.505-.638C.212 18.226 0 17.725 0 17.142v-4.284c0-.582.212-1.083.637-1.507.423-.424.924-.634 1.505-.634h8.57v-8.57c0-.582.214-1.083.638-1.51.423-.422.927-.635 1.507-.635h4.285c.58 0 1.082.214 1.506.637.425.426.637.927.637 1.508v8.57h8.57c.58 0 1.084.21 1.507.637.423.425.637.926.637 1.508v4.284zm0 0"/></svg>