<svg xmlns="http://www.w3.org/2000/svg" width="30" height="30" viewBox="0 0 30 30"><path fill="#FFF" d="M24.092 27.12c-.413.413-.917.615-1.516.616-.602 0-1.106-.206-1.515-.615L15 21.06l-6.062 6.06c-.41.41-.915.617-1.515.616-.6 0-1.105-.204-1.515-.614l-3.03-3.03c-.41-.41-.617-.917-.616-1.517 0-.6.205-1.104.616-1.515L8.938 15 2.88 8.937c-.41-.41-.616-.914-.614-1.514 0-.6.203-1.104.615-1.516l3.03-3.03c.41-.41.916-.615 1.516-.614.6-.002 1.103.204 1.513.614L15 8.937l6.06-6.06c.41-.41.916-.613 1.516-.615.598 0 1.105.206 1.515.616l3.03 3.03c.41.41.618.916.618 1.515 0 .6-.205 1.106-.615 1.516L21.06 15l6.06 6.06c.41.41.618.916.615 1.516 0 .6-.203 1.104-.615 1.516l-3.028 3.028zm0 0"/></svg>