<svg xmlns="http://www.w3.org/2000/svg" width="30" height="30" viewBox="0 0 30 30"><path fill="#737373" d="M27.5 2.813h-4.06V.937c0-.518-.42-.937-.938-.937-.52 0-.94.42-.94.938v1.875H15.94V.937C15.938.42 15.518 0 15 0s-.94.42-.94.938v1.875H8.44V.937C8.438.42 8.018 0 7.5 0s-.938.42-.938.938v1.875H2.5C1.12 2.813 0 3.93 0 5.31V27.5C0 28.88 1.12 30 2.5 30h25c1.382 0 2.5-1.12 2.5-2.5V5.31c0-1.38-1.118-2.497-2.5-2.497zm.625 24.687c0 .345-.28.625-.624.625h-25c-.343 0-.623-.28-.623-.625V5.31c0-.342.28-.623.625-.623h4.063v1.875c0 .52.42.938.938.938s.94-.42.94-.938V4.688h5.622v1.875c.002.52.422.938.94.938s.94-.42.94-.936V4.688h5.622v1.875c0 .52.418.938.938.938s.938-.42.938-.936V4.688h4.06c.345 0 .625.28.625.624v22.19zm0 0"/><path fill="#737373" d="M6.563 11.25h3.75v2.812h-3.75zm0 4.688h3.75v2.812h-3.75zm0 4.687h3.75v2.813h-3.75zm6.562 0h3.75v2.813h-3.75zm0-4.687h3.75v2.812h-3.75zm0-4.688h3.75v2.812h-3.75zm6.563 9.375h3.75v2.813h-3.75zm0-4.687h3.75v2.812h-3.75zm0-4.688h3.75v2.812h-3.75z"/></svg>