<svg xmlns="http://www.w3.org/2000/svg" width="30" height="30" viewBox="0 0 30 30"><g fill="#fff"><path d="M29.787 17.432l-13.64-13.64L12.532.177c-.206-.206-.54-.206-.746 0l-2.51 2.51c-.135.136-.187.333-.134.518.474 1.673.006 3.476-1.222 4.704-.904.9-2.11 1.4-3.39 1.4-.444 0-.886-.06-1.313-.188-.184-.05-.382 0-.518.135L.19 11.77c-.21.207-.21.54 0 .747L3.8 16.13l13.64 13.64c.1.105.24.157.37.157s.27-.05.373-.152l2.51-2.51c.135-.135.187-.333.134-.518-.476-1.674-.008-3.477 1.22-4.704.906-.906 2.11-1.404 3.39-1.404.445 0 .888.06 1.315.18.184.05.38 0 .517-.137l2.51-2.51c.2-.205.2-.54 0-.746zm-3.044 2.298c-.426-.096-.86-.145-1.298-.145-1.562 0-3.03.608-4.135 1.713-1.425 1.424-2.01 3.48-1.57 5.434l-1.924 1.924L4.922 15.763l.498-.498c.207-.206.207-.54 0-.747-.206-.206-.54-.206-.746 0l-.498.498L1.31 12.15l1.924-1.925c.425.096.86.145 1.297.145 1.57 0 3.04-.61 4.14-1.714 1.43-1.424 2.01-3.48 1.57-5.433l1.93-1.925 2.867 2.867-.497.498c-.207.206-.207.54 0 .746.102.1.237.15.37.15s.27-.05.373-.16l.5-.5 12.89 12.9-1.925 1.923zm0 0"/><path d="M24.393 16.47L15.69 7.766c-.207-.207-.54-.207-.748 0L7.777 14.93c-.207.208-.207.54 0 .748l8.704 8.704c.11.102.24.154.38.154.138 0 .27-.052.377-.154l7.165-7.166c.207-.206.207-.54 0-.746zm-7.54 6.792l-7.957-7.957 6.42-6.42 7.957 7.958-6.42 6.42zM13.305 6.634c-.206-.206-.54-.206-.746 0l-1.98 1.97c-.208.207-.208.54 0 .747.1.11.236.16.372.16s.27-.05.373-.15l1.97-1.97c.207-.206.207-.54 0-.746zm-3.943 3.942c-.206-.206-.54-.206-.746 0l-1.972 1.97c-.205.207-.205.54 0 .748.104.102.24.154.373.154s.27-.052.373-.155l1.972-1.97c.206-.207.206-.54 0-.747zm0 0"/></g></svg>