<svg xmlns="http://www.w3.org/2000/svg" width="30" height="30" viewBox="0 0 30 30"><g fill="#fff"><path d="M16.387 22.06c0 .768-.62 1.39-1.388 1.39-.77 0-1.39-.62-1.39-1.388 0-.765.62-1.386 1.385-1.386.766 0 1.387.62 1.387 1.387v.002zm-1.574-3.597c.422 0 .764-.343.764-.765v-7.255c0-.422-.342-.764-.764-.764s-.763.34-.763.76v7.254c0 .422.342.764.763.764zm0 0"/><path d="M17.783 4.408l-.034-.054c-.71-1.09-1.44-2.217-2.75-2.217-1.37 0-2.08 1.143-2.777 2.25l-.028.045-12.09 20.49c-.07.12-.107.18-.107.316 0 1.49 1.194 2.625 2.67 2.625h24.66c1.47 0 2.67-1.137 2.67-2.625 0-.135-.04-.234-.11-.35L17.78 4.408zm9.548 21.928H2.67c-.56 0-1.04-.363-1.128-.914L13.522 5.16c.594-.95.983-1.514 1.477-1.514.48 0 .94.714 1.463 1.53l11.99 20.242c-.088.55-.567.918-1.126.918zm0 0"/></g></svg>