<svg xmlns="http://www.w3.org/2000/svg" width="130" height="40" viewBox="0 0 130 40"><path fill="#0B7BA8" d="M19.407 25c-1.386.742-2.934 1.112-4.647 1.112-.868 0-1.663-.14-2.387-.42-.725-.28-1.35-.676-1.872-1.19-.52-.513-.93-1.128-1.22-1.85-.296-.717-.443-1.514-.443-2.392 0-.9.148-1.716.444-2.45.296-.736.705-1.362 1.23-1.88s1.146-.918 1.87-1.198c.725-.28 1.52-.42 2.388-.42.858 0 1.66.103 2.41.31.75.206 1.425.573 2.016 1.1l-1.473 1.492c-.36-.35-.795-.618-1.31-.808-.51-.19-1.052-.286-1.624-.286-.58 0-1.107.103-1.578.31-.47.205-.875.49-1.213.856-.34.364-.6.79-.785 1.277-.19.486-.28 1.01-.28 1.57 0 .602.09 1.157.275 1.665.184.508.446.947.784 1.316.34.37.743.66 1.212.873.47.21.998.317 1.58.317.507 0 .985-.047 1.435-.143.45-.09.85-.24 1.2-.44v-2.65h-2.3v-1.81h4.3V25zm6.93-2.71l-2.58-2.58 1.24-1.243 1.34 1.34 5.775-5.775 1.24 1.24"/><path fill="#0B7BA8" d="M25.99 26.214c-3.233 0-5.864-2.63-5.864-5.864 0-3.233 2.63-5.863 5.863-5.863 1.07 0 2.13.295 3.04.852l-.917 1.49c-.64-.39-1.378-.596-2.133-.596-2.264 0-4.107 1.842-4.107 4.106s1.842 4.108 4.106 4.108 4.106-1.843 4.106-4.108c0-.366-.05-.727-.144-1.075l1.697-.46c.135.5.203 1.017.203 1.536 0 3.235-2.63 5.866-5.865 5.866"/><path fill="#0B7BA8" d="M20.33 1.223C9.977 1.223 1.554 9.646 1.554 20c0 10.354 8.423 18.777 18.776 18.777 10.355 0 18.777-8.423 18.777-18.777 0-10.354-8.422-18.777-18.777-18.777m0 38.777c-11.028 0-20-8.972-20-20s8.972-20 20-20 20 8.972 20 20-8.972 20-20 20"/><path fill="#0B7BA8" d="M58.712 17.154c-.504 0-.96.083-1.37.25-.413.164-.763.393-1.055.684-.292.293-.52.648-.686 1.066-.16.418-.24.88-.24 1.383 0 .46.085.885.25 1.28.167.393.398.74.7 1.04.3.3.654.537 1.064.71.41.174.85.26 1.325.26.52 0 .99-.086 1.407-.26.418-.174.774-.406 1.066-.7.29-.29.516-.64.675-1.05.158-.41.236-.853.236-1.326 0-.99-.3-1.79-.9-2.41-.6-.61-1.42-.92-2.46-.92m6.057-2.27v10.34c0 1.028-.124 1.955-.376 2.78-.255.83-.645 1.53-1.17 2.108s-1.2 1.023-2 1.34c-.808.313-1.76.472-2.867.472-1.056 0-2.057-.135-3.004-.403-.948-.268-1.82-.756-2.628-1.467l1.704-2.32c.566.522 1.16.924 1.773 1.207.616.286 1.327.427 2.13.427.68 0 1.25-.094 1.716-.282.46-.186.834-.446 1.11-.78.276-.33.474-.73.59-1.193.12-.47.18-.987.18-1.55v-.83h-.048c-.41.55-.957.965-1.634 1.24-.678.274-1.372.412-2.08.412-.853 0-1.626-.153-2.32-.46s-1.29-.723-1.787-1.243c-.5-.52-.88-1.138-1.15-1.85-.27-.71-.4-1.467-.4-2.27 0-.84.125-1.62.38-2.344.25-.726.62-1.358 1.11-1.894s1.076-.96 1.763-1.264c.685-.31 1.47-.465 2.353-.465.805 0 1.555.158 2.25.474s1.245.82 1.655 1.513h.05v-1.7h2.698zm5.018 5.68c0 .44.076.868.227 1.278.15.41.37.774.664 1.09.29.314.64.567 1.05.757.412.19.876.284 1.397.284.52 0 .99-.095 1.4-.283.41-.19.76-.442 1.054-.756.29-.32.51-.68.663-1.09.15-.41.225-.84.225-1.28 0-.44-.073-.867-.223-1.276-.15-.41-.37-.774-.663-1.09-.292-.315-.64-.568-1.05-.757s-.873-.283-1.395-.283c-.52 0-.983.094-1.395.284-.41.19-.76.443-1.054.758-.29.316-.51.678-.66 1.09-.15.41-.226.835-.226 1.277m-2.84 0c0-.9.16-1.714.483-2.45.324-.73.76-1.36 1.313-1.88.553-.52 1.207-.922 1.965-1.205.76-.286 1.565-.428 2.417-.428.85 0 1.656.14 2.413.425.757.28 1.412.683 1.963 1.204.555.52.99 1.15 1.317 1.882.32.733.484 1.55.484 2.45 0 .898-.16 1.714-.483 2.448-.325.737-.762 1.36-1.315 1.884-.55.52-1.205.924-1.963 1.208-.755.284-1.56.425-2.41.425-.853 0-1.657-.14-2.415-.425s-1.412-.687-1.965-1.21c-.553-.52-.99-1.145-1.314-1.88-.32-.733-.485-1.55-.485-2.45m12.04-5.677H82.1l3.028 7.95h.048l3.054-7.95h2.91l-4.47 11.36h-3.03m8.872-2.683l4.64-4.167c.236-.214.472-.456.708-.726.237-.27.355-.586.355-.946 0-.405-.147-.723-.438-.954-.294-.23-.638-.347-1.03-.347-.474 0-.84.145-1.107.44-.26.29-.41.65-.444 1.08l-2.53-.188c.032-.62.16-1.156.386-1.61.226-.457.523-.837.894-1.14.37-.304.808-.532 1.308-.684.5-.15 1.043-.23 1.628-.23.54 0 1.047.08 1.518.23.473.15.883.378 1.233.676.35.298.62.673.818 1.122.2.45.3.97.3 1.567 0 .383-.04.728-.12 1.038-.08.31-.186.59-.33.845-.14.253-.304.486-.495.7-.19.214-.397.42-.622.624l-3.63 3.124h5.3v2.227h-8.34v-2.68zm16.738-6.405c-.503 0-.96.083-1.37.25-.41.164-.762.393-1.053.684-.294.29-.52.648-.687 1.066-.165.42-.25.88-.25 1.384 0 .46.085.884.25 1.28.167.392.4.74.7 1.04.3.3.653.536 1.064.71.41.173.852.26 1.325.26.52 0 .99-.087 1.41-.26.41-.175.77-.407 1.06-.7.29-.29.52-.64.67-1.05.156-.41.237-.854.237-1.327 0-.992-.3-1.797-.9-2.413-.6-.616-1.42-.923-2.46-.923m6.06-2.27v10.34c0 1.026-.13 1.953-.38 2.78s-.644 1.53-1.17 2.107c-.53.576-1.196 1.022-2 1.34-.806.312-1.76.47-2.864.47-1.058 0-2.06-.134-3.007-.402-.945-.267-1.82-.755-2.626-1.466l1.705-2.32c.563.525 1.16.927 1.77 1.21.617.286 1.33.427 2.13.427.68 0 1.25-.093 1.717-.28.464-.19.835-.45 1.11-.78.277-.33.475-.73.593-1.196.12-.468.18-.986.18-1.55v-.83h-.046c-.41.552-.956.966-1.635 1.24-.68.276-1.37.414-2.08.414-.853 0-1.627-.15-2.32-.46-.694-.31-1.29-.72-1.787-1.24s-.88-1.136-1.15-1.847c-.268-.71-.4-1.467-.4-2.27 0-.84.126-1.62.377-2.344.256-.73.627-1.36 1.115-1.898.49-.535 1.076-.96 1.763-1.265.686-.31 1.47-.462 2.354-.462.805 0 1.554.158 2.25.474.693.314 1.246.82 1.656 1.513h.046v-1.71h2.697zm5.013 5.68c0 .44.076.866.224 1.276.153.41.373.773.666 1.09.29.313.64.566 1.05.756.41.19.876.28 1.397.28s.986-.094 1.396-.282c.41-.19.76-.447 1.055-.76.29-.32.51-.68.66-1.09.15-.41.227-.84.227-1.28 0-.44-.073-.868-.224-1.277-.15-.41-.37-.774-.66-1.09-.29-.315-.642-.57-1.052-.757s-.875-.284-1.397-.284-.985.094-1.395.284-.76.442-1.052.757c-.293.315-.513.677-.664 1.09-.147.41-.223.834-.223 1.276m-2.84 0c0-.9.16-1.715.48-2.45.32-.732.76-1.36 1.314-1.88.553-.52 1.208-.923 1.966-1.206.757-.285 1.562-.427 2.413-.427s1.657.14 2.414.426c.755.28 1.41.682 1.96 1.203.553.523.992 1.15 1.315 1.884.322.73.485 1.55.485 2.45 0 .896-.163 1.712-.485 2.446-.32.736-.76 1.36-1.314 1.883-.55.52-1.205.92-1.963 1.205-.758.285-1.564.426-2.416.426s-1.654-.14-2.41-.425c-.76-.285-1.414-.687-1.966-1.21-.55-.52-.99-1.145-1.31-1.88-.324-.733-.485-1.55-.485-2.45"/></svg>