<?xml version="1.0" encoding="utf-8"?>
<!-- Generator: Adobe Illustrator 16.0.0, SVG Export Plug-In . SVG Version: 6.00 Build 0)  -->
<!DOCTYPE svg PUBLIC "-//W3C//DTD SVG 1.1//EN" "http://www.w3.org/Graphics/SVG/1.1/DTD/svg11.dtd">
<svg version="1.1" id="Layer_1" xmlns="http://www.w3.org/2000/svg" xmlns:xlink="http://www.w3.org/1999/xlink" x="0px" y="0px"
	 width="150px" height="200px" viewBox="0 0 150 200" enable-background="new 0 0 150 200" xml:space="preserve">
<path fill="#FFFFFF" d="M71.623,85.7715c-4.7256,2.5259-10.0103,3.7871-15.854,3.7871c-2.9565,0-5.6714-0.4775-8.1431-1.4331
	c-2.4717-0.9561-4.5981-2.3086-6.3848-4.0586c-1.7861-1.749-3.1841-3.8501-4.1943-6.3037
	c-1.0103-2.4531-1.5151-5.1758-1.5151-8.1699c0-3.0659,0.5049-5.8525,1.5151-8.3608c1.0103-2.5063,2.4082-4.6445,4.1943-6.4116
	c1.7866-1.7666,3.9131-3.1284,6.3848-4.0854c2.4717-0.9546,5.1865-1.4336,8.1431-1.4336c2.9219,0,5.6626,0.3511,8.2251,1.0547
	c2.5615,0.7036,4.8506,1.957,6.873,3.7612l-5.0332,5.0854c-1.2271-1.1895-2.7148-2.1099-4.4639-2.7598
	c-1.7495-0.6484-3.5986-0.9731-5.5459-0.9731c-1.9854,0-3.7798,0.3521-5.3838,1.0552c-1.6074,0.7031-2.9863,1.6777-4.1387,2.9219
	c-1.1567,1.2446-2.0498,2.6963-2.6807,4.355c-0.6309,1.6606-0.9468,3.4458-0.9468,5.3574c0,2.0557,0.3159,3.9497,0.9468,5.6826
	c0.6309,1.73,1.5239,3.2275,2.6807,4.4902c1.1523,1.2627,2.5312,2.2549,4.1387,2.9761c1.604,0.7217,3.3984,1.0815,5.3838,1.0815
	c1.73,0,3.3633-0.1621,4.896-0.4873c1.5317-0.3247,2.895-0.8291,4.0859-1.5142v-9.0361h-7.8467v-6.1689H71.623V85.7715z"/>
<polygon fill="#FFFFFF" points="95.2656,76.5205 86.4561,67.7119 90.6924,63.4751 95.2656,68.0488 114.9688,48.3452 
	119.2051,52.5811 "/>
<path fill="#FFFFFF" d="M94.082,89.9048c-11.0312,0-20.0034-8.9741-20.0034-20.0039s8.9722-20.0034,20.0034-20.0034
	c3.6738,0,7.2656,1.0059,10.3896,2.9077l-3.1152,5.1162c-2.1855-1.3296-4.7012-2.0327-7.2744-2.0327
	c-7.7275,0-14.0127,6.2866-14.0127,14.0122c0,7.7261,6.2852,14.0132,14.0127,14.0132c7.7246,0,14.0117-6.2871,14.0117-14.0132
	c0-1.2461-0.1621-2.4805-0.4834-3.6675l5.7832-1.5645c0.459,1.6978,0.6924,3.458,0.6924,5.2319
	C114.0859,80.9307,105.1113,89.9048,94.082,89.9048"/>
<path fill="#FFFFFF" d="M74.7744,4.6475c-35.3232,0-64.0615,28.7368-64.0615,64.0591c0,35.3237,28.7383,64.063,64.0615,64.063
	c35.3223,0,64.0615-28.7393,64.0615-64.063C138.8359,33.3843,110.0967,4.6475,74.7744,4.6475 M74.7744,136.9404
	c-37.625,0-68.2339-30.6084-68.2339-68.2339c0-37.623,30.6089-68.2329,68.2339-68.2329c37.624,0,68.2344,30.6099,68.2344,68.2329
	C143.0088,106.332,112.3984,136.9404,74.7744,136.9404"/>
<path fill="#FFFFFF" d="M14.0913,169.5781c-0.9624,0-1.8345,0.1572-2.6147,0.4727c-0.7817,0.3164-1.4492,0.7529-2.0044,1.3066
	c-0.5562,0.5576-0.9927,1.2324-1.3076,2.0273c-0.3149,0.7979-0.4722,1.6748-0.4722,2.6377c0,0.8701,0.1572,1.6816,0.4722,2.4326
	c0.3149,0.75,0.7583,1.4111,1.3291,1.9824c0.5713,0.5723,1.2461,1.0215,2.0269,1.3525c0.7817,0.3301,1.6245,0.4941,2.5249,0.4941
	c0.9917,0,1.8848-0.1641,2.6826-0.4941c0.793-0.3311,1.4692-0.7744,2.0254-1.3301c0.5566-0.5566,0.9839-1.2236,1.2856-2.0049
	c0.2988-0.7803,0.4492-1.6211,0.4492-2.5244c0-1.8906-0.5703-3.4238-1.7109-4.5957
	C17.6338,170.1631,16.0742,169.5781,14.0913,169.5781 M25.627,165.252v19.6904c0,1.9531-0.2422,3.7188-0.7217,5.2949
	c-0.4805,1.5781-1.2246,2.9141-2.2305,4.0117c-1.0063,1.0947-2.2764,1.9434-3.8076,2.5449
	c-1.5332,0.6006-3.3496,0.9014-5.4526,0.9014c-2.0132,0-3.9209-0.2559-5.7222-0.7656c-1.8027-0.5107-3.4692-1.4424-5.0029-2.7939
	l3.2451-4.416c1.0806,0.9922,2.2095,1.7568,3.3804,2.2988c1.1694,0.54,2.5229,0.8096,4.0532,0.8096
	c1.2915,0,2.3823-0.1777,3.2686-0.54c0.8843-0.3604,1.5918-0.8564,2.1167-1.4873c0.5254-0.6309,0.9033-1.3906,1.1255-2.2744
	c0.2261-0.8867,0.3394-1.8711,0.3394-2.9512v-1.5771h-0.0889c-0.7803,1.0518-1.8184,1.8389-3.1104,2.3643
	c-1.292,0.5264-2.6147,0.7891-3.9648,0.7891c-1.6235,0-3.0942-0.293-4.4155-0.877c-1.3223-0.5869-2.457-1.377-3.4033-2.3682
	c-0.9453-0.9902-1.6733-2.1611-2.1841-3.5127c-0.5112-1.3535-0.7666-2.7939-0.7666-4.3271c0-1.5908,0.2393-3.0781,0.7207-4.4609
	c0.4805-1.3799,1.1865-2.583,2.1182-3.6045c0.9302-1.0205,2.0488-1.8252,3.356-2.4111c1.3081-0.585,2.8013-0.8789,4.4854-0.8789
	c1.5303,0,2.9575,0.3018,4.2798,0.9023c1.3218,0.6016,2.373,1.5625,3.1538,2.8838h0.0898v-3.2451H25.627z"/>
<path fill="#FFFFFF" d="M35.1797,176.0674c0,0.8418,0.1426,1.6523,0.4272,2.4316c0.2852,0.7832,0.7056,1.4736,1.2622,2.0742
	c0.5557,0.6016,1.2241,1.0801,2.0044,1.4424c0.7817,0.3594,1.668,0.54,2.6582,0.54c0.9922,0,1.8784-0.1807,2.6592-0.54
	c0.7812-0.3623,1.4492-0.8408,2.0049-1.4424c0.5562-0.6006,0.9756-1.291,1.2627-2.0742c0.2842-0.7793,0.4272-1.5898,0.4272-2.4316
	s-0.1431-1.6514-0.4272-2.4336c-0.2871-0.7822-0.7065-1.4717-1.2627-2.0742c-0.5557-0.5986-1.2236-1.0791-2.0049-1.4414
	c-0.7808-0.3594-1.667-0.54-2.6592-0.54c-0.9902,0-1.8765,0.1807-2.6582,0.54c-0.7803,0.3623-1.4487,0.8428-2.0044,1.4414
	c-0.5566,0.6025-0.9771,1.292-1.2622,2.0742C35.3223,174.416,35.1797,175.2256,35.1797,176.0674 M29.7705,176.0674
	c0-1.7129,0.3086-3.2676,0.9243-4.6641c0.6152-1.3975,1.4502-2.5928,2.501-3.5811c1.0518-0.9922,2.2979-1.7598,3.7412-2.2998
	c1.4419-0.541,2.9736-0.8115,4.5947-0.8115c1.6221,0,3.1548,0.2705,4.5952,0.8115c1.4434,0.54,2.6899,1.3076,3.7407,2.2998
	c1.0518,0.9883,1.8853,2.1836,2.5005,3.5811c0.6157,1.3965,0.9253,2.9512,0.9253,4.6641c0,1.7119-0.3096,3.2676-0.9253,4.6641
	c-0.6152,1.3965-1.4487,2.5898-2.5005,3.5811c-1.0508,0.9922-2.2974,1.7578-3.7407,2.2988c-1.4404,0.54-2.9731,0.8105-4.5952,0.8105
	c-1.6211,0-3.1528-0.2705-4.5947-0.8105c-1.4434-0.541-2.6895-1.3066-3.7412-2.2988c-1.0508-0.9912-1.8857-2.1846-2.501-3.5811
	C30.0791,179.335,29.7705,177.7793,29.7705,176.0674"/>
<polygon fill="#FFFFFF" points="52.7056,165.252 58.6084,165.252 64.3755,180.3936 64.4658,180.3936 70.2783,165.252 
	75.8218,165.252 67.3052,186.8818 61.5366,186.8818 "/>
<path fill="#FFFFFF" d="M78.4316,181.7725l8.835-7.9355c0.4502-0.4053,0.8994-0.8652,1.3486-1.3789
	c0.4492-0.5146,0.6748-1.1152,0.6748-1.7988c0-0.7715-0.2783-1.377-0.8359-1.8154c-0.5566-0.4385-1.209-0.6582-1.959-0.6582
	c-0.8984,0-1.6006,0.2783-2.1045,0.8359c-0.502,0.5557-0.7871,1.2402-0.8516,2.0557l-4.8184-0.3555
	c0.0645-1.1768,0.3096-2.2002,0.7383-3.0664c0.4297-0.8682,0.9961-1.5908,1.7031-2.1689c0.707-0.5771,1.5361-1.0117,2.4883-1.3018
	c0.9551-0.2881,1.9893-0.4336,3.1006-0.4336c1.0293,0,1.9932,0.1455,2.8906,0.4336c0.9004,0.29,1.6816,0.7197,2.3447,1.2861
	c0.6641,0.5674,1.1836,1.2793,1.5605,2.1357c0.375,0.8574,0.5605,1.8525,0.5605,2.9873c0,0.7275-0.0762,1.3887-0.2236,1.9766
	c-0.1504,0.5889-0.3594,1.124-0.627,1.6064s-0.584,0.9277-0.9492,1.332c-0.3633,0.4082-0.7578,0.8047-1.1846,1.1895l-6.9082,5.9434
	h10.0869v4.2393H78.4316V181.7725z"/>
<path fill="#FFFFFF" d="M110.3066,169.5781c-0.9609,0-1.834,0.1572-2.6133,0.4727c-0.7812,0.3164-1.4492,0.7529-2.0059,1.3066
	c-0.5557,0.5576-0.9912,1.2324-1.3066,2.0273c-0.3145,0.7979-0.4717,1.6748-0.4717,2.6377c0,0.8701,0.1572,1.6816,0.4717,2.4326
	c0.3154,0.75,0.7588,1.4111,1.3291,1.9824c0.5723,0.5723,1.2461,1.0215,2.0273,1.3525c0.7822,0.3301,1.624,0.4941,2.5244,0.4941
	c0.9922,0,1.8848-0.1641,2.6816-0.4941c0.7949-0.3311,1.4707-0.7744,2.0264-1.3301c0.5566-0.5566,0.9844-1.2236,1.2871-2.0049
	c0.2969-0.7803,0.4482-1.6211,0.4482-2.5244c0-1.8906-0.5723-3.4238-1.7119-4.5957
	C113.8516,170.1631,112.291,169.5781,110.3066,169.5781 M121.8428,165.252v19.6904c0,1.9531-0.2412,3.7188-0.7207,5.2949
	c-0.4805,1.5781-1.2256,2.9141-2.2314,4.0117c-1.0059,1.0947-2.2764,1.9434-3.8076,2.5449
	c-1.5332,0.6006-3.3496,0.9014-5.4521,0.9014c-2.0117,0-3.9209-0.2559-5.7217-0.7656c-1.8027-0.5107-3.4707-1.4424-5.0039-2.7939
	l3.2461-4.416c1.0801,0.9922,2.208,1.7568,3.3799,2.2988c1.1699,0.54,2.5234,0.8096,4.0537,0.8096
	c1.293,0,2.3818-0.1777,3.2686-0.54c0.8848-0.3604,1.5918-0.8564,2.1162-1.4873c0.5254-0.6309,0.9033-1.3906,1.125-2.2744
	c0.2275-0.8867,0.3389-1.8711,0.3389-2.9512v-1.5771h-0.0879c-0.7822,1.0518-1.8184,1.8389-3.1104,2.3643
	c-1.291,0.5264-2.6152,0.7891-3.9648,0.7891c-1.624,0-3.0938-0.293-4.415-0.877c-1.3232-0.5869-2.457-1.377-3.4023-2.3682
	c-0.9463-0.9902-1.6758-2.1611-2.1846-3.5127c-0.5127-1.3535-0.7666-2.7939-0.7666-4.3271c0-1.5908,0.2383-3.0781,0.7197-4.4609
	c0.4805-1.3799,1.1875-2.583,2.1182-3.6045c0.9307-1.0205,2.0498-1.8252,3.3564-2.4111c1.3086-0.585,2.8008-0.8789,4.4854-0.8789
	c1.5293,0,2.957,0.3018,4.2793,0.9023c1.3213,0.6016,2.373,1.5625,3.1533,2.8838h0.0908v-3.2451H121.8428z"/>
<path fill="#FFFFFF" d="M131.3965,176.0674c0,0.8418,0.1436,1.6523,0.4268,2.4316c0.2852,0.7832,0.7061,1.4736,1.2607,2.0742
	c0.5576,0.6016,1.2256,1.0801,2.0059,1.4424c0.7832,0.3594,1.668,0.54,2.6592,0.54c0.9922,0,1.876-0.1807,2.6582-0.54
	c0.7822-0.3623,1.4502-0.8408,2.0049-1.4424c0.5557-0.6006,0.9756-1.291,1.2617-2.0742c0.2861-0.7793,0.4277-1.5898,0.4277-2.4316
	s-0.1416-1.6514-0.4277-2.4336s-0.7061-1.4717-1.2617-2.0742c-0.5547-0.5986-1.2227-1.0791-2.0049-1.4414
	c-0.7822-0.3594-1.666-0.54-2.6582-0.54c-0.9912,0-1.876,0.1807-2.6592,0.54c-0.7803,0.3623-1.4482,0.8428-2.0059,1.4414
	c-0.5547,0.6025-0.9756,1.292-1.2607,2.0742C131.54,174.416,131.3965,175.2256,131.3965,176.0674 M125.9873,176.0674
	c0-1.7129,0.3086-3.2676,0.9229-4.6641c0.6162-1.3975,1.4492-2.5928,2.502-3.5811c1.0518-0.9922,2.2979-1.7598,3.7412-2.2998
	c1.4414-0.541,2.9736-0.8115,4.5957-0.8115s3.1543,0.2705,4.5947,0.8115c1.4424,0.54,2.6895,1.3076,3.7402,2.2998
	c1.0518,0.9883,1.8848,2.1836,2.501,3.5811c0.6162,1.3965,0.9238,2.9512,0.9238,4.6641c0,1.7119-0.3076,3.2676-0.9238,4.6641
	s-1.4492,2.5898-2.501,3.5811c-1.0508,0.9922-2.2979,1.7578-3.7402,2.2988c-1.4404,0.54-2.9727,0.8105-4.5947,0.8105
	s-3.1543-0.2705-4.5957-0.8105c-1.4434-0.541-2.6895-1.3066-3.7412-2.2988c-1.0527-0.9912-1.8857-2.1846-2.502-3.5811
	C126.2959,179.335,125.9873,177.7793,125.9873,176.0674"/>
</svg>
