<svg width="156" height="32" viewBox="0 0 156 32" xmlns="http://www.w3.org/2000/svg"><title>Gov2Go</title><g fill="none" fill-rule="evenodd"><path d="M13.972 30.164c-1.73 0-3.426-.248-5.09-.744-1.662-.496-3.15-1.267-4.46-2.315-1.31-1.047-2.364-2.37-3.164-3.97-.8-1.596-1.2-3.512-1.2-5.744 0-2.31.448-4.51 1.345-6.59S3.568 6.88 5.21 5.28c1.64-1.6 3.59-2.866 5.855-3.803C13.333.54 15.835.07 18.582.07c1.426 0 2.764.14 4.013.414 1.248.275 2.373.64 3.375 1.095 1.002.45 1.887.97 2.656 1.57.767.59 1.4 1.2 1.893 1.84l-5.36 5.2c-.85-.856-1.86-1.566-3.028-2.13-1.166-.566-2.53-.848-4.096-.848-1.454 0-2.777.262-3.97.787-1.194.524-2.224 1.236-3.088 2.134-.865.897-1.538 1.95-2.018 3.15s-.72 2.465-.72 3.79c0 1.024.17 1.92.512 2.695.343.772.81 1.415 1.4 1.925.59.512 1.276.9 2.058 1.16.783.263 1.613.395 2.49.395.797 0 1.51-.074 2.14-.23.633-.15 1.195-.34 1.69-.56l1.15-3.92h-5.55l1.524-5.87H28.87l-4.114 14.6c-1.427.827-3.046 1.516-4.857 2.067-1.82.55-3.79.827-5.93.827m26.51-.04c-1.71 0-3.23-.27-4.57-.808-1.35-.537-2.49-1.267-3.44-2.19-.95-.923-1.67-2.02-2.16-3.287-.5-1.27-.74-2.65-.74-4.14 0-1.68.33-3.31.99-4.88.65-1.57 1.57-2.956 2.75-4.155 1.18-1.2 2.566-2.156 4.158-2.87 1.592-.718 3.32-1.077 5.187-1.077 1.7 0 3.23.27 4.59.807 1.36.54 2.51 1.27 3.46 2.19.943.926 1.663 2.02 2.16 3.29.49 1.265.74 2.63.74 4.09 0 1.71-.338 3.34-1.01 4.9-.67 1.555-1.59 2.94-2.758 4.152-1.168 1.213-2.553 2.177-4.16 2.894-1.604.717-3.34 1.076-5.206 1.076zm.46-6.49c.76 0 1.46-.19 2.1-.564.64-.376 1.18-.86 1.63-1.46.45-.596.79-1.263 1.04-2s.36-1.48.36-2.23c0-1.276-.354-2.29-1.06-3.04-.708-.75-1.63-1.125-2.774-1.125-.76 0-1.46.188-2.1.562-.64.375-1.184.862-1.63 1.46-.45.596-.797 1.263-1.04 2-.246.735-.368 1.464-.368 2.186 0 1.306.352 2.333 1.06 3.083.706.75 1.63 1.125 2.773 1.125zM54.47 7.22h8.03l.825 13.02 7.697-13.02h8.315l-14.86 22.53h-7.12L54.475 7.22m60.715 22.944c-1.73 0-3.426-.248-5.09-.744-1.663-.496-3.15-1.267-4.46-2.315-1.31-1.047-2.364-2.37-3.165-3.97-.8-1.596-1.2-3.512-1.2-5.744 0-2.31.45-4.51 1.345-6.59.897-2.08 2.165-3.92 3.807-5.52 1.64-1.6 3.593-2.86 5.858-3.8C114.55.54 117.055.07 119.8.07c1.426 0 2.764.14 4.013.414 1.25.275 2.373.64 3.375 1.095 1.002.45 1.887.97 2.655 1.57.77.59 1.4 1.2 1.894 1.84l-5.352 5.2c-.85-.855-1.86-1.565-3.025-2.13-1.166-.565-2.53-.847-4.095-.847-1.455 0-2.78.262-3.973.787-1.194.525-2.222 1.237-3.087 2.135-.865.897-1.537 1.95-2.017 3.15s-.72 2.465-.72 3.79c0 1.024.17 1.92.514 2.695.343.774.81 1.417 1.4 1.927.59.512 1.276.9 2.058 1.16.782.263 1.612.395 2.49.395.796 0 1.51-.076 2.14-.23.632-.15 1.195-.34 1.69-.562l1.15-3.92h-5.556l1.523-5.87h13.214l-4.11 14.593c-1.424.827-3.043 1.516-4.854 2.067-1.812.55-3.787.827-5.93.827m27.54-.04c-1.703 0-3.226-.27-4.57-.806-1.345-.533-2.49-1.263-3.437-2.19-.946-.92-1.666-2.02-2.16-3.283-.494-1.27-.74-2.648-.74-4.137 0-1.68.33-3.306.987-4.876.66-1.57 1.578-2.956 2.76-4.155 1.18-1.2 2.564-2.158 4.156-2.87 1.59-.72 3.32-1.08 5.187-1.08 1.7 0 3.23.27 4.587.81 1.36.537 2.51 1.27 3.46 2.19.946.924 1.666 2.02 2.16 3.287.494 1.266.74 2.63.74 4.09 0 1.71-.335 3.342-1.007 4.9-.673 1.556-1.592 2.94-2.758 4.153-1.17 1.217-2.555 2.18-4.16 2.898-1.605.716-3.34 1.075-5.207 1.075zm.46-6.49c.76 0 1.46-.187 2.1-.56.64-.377 1.18-.86 1.63-1.46.45-.597.795-1.264 1.04-2 .244-.736.367-1.48.367-2.23 0-1.277-.353-2.29-1.06-3.04-.71-.75-1.632-1.126-2.774-1.126-.76 0-1.46.19-2.1.566-.64.375-1.18.862-1.63 1.46-.45.596-.797 1.263-1.04 2-.246.735-.368 1.464-.368 2.186 0 1.306.353 2.333 1.06 3.083.707.75 1.63 1.125 2.774 1.125z" fill="#1E3252"/><path d="M103.456 16.247c0 8.694-7.018 15.742-15.675 15.742s-15.67-7.05-15.67-15.75C72.11 7.55 79.13.5 87.79.5c8.66 0 15.677 7.047 15.677 15.74" fill="#38B6D0"/><path d="M81.608 19.718l7.216-4.73c.62-.423 1.05-.796 1.287-1.123.24-.326.36-.66.36-1 0-.352-.12-.634-.35-.845-.236-.21-.577-.316-1.023-.316-.514 0-1.04.16-1.58.478-.54.32-1.09.75-1.643 1.293l-2.29-2.42c.743-.808 1.594-1.47 2.554-1.982s2.068-.77 3.325-.77c.77 0 1.463.103 2.077.307.615.204 1.14.486 1.57.847.434.36.765.788.995 1.284.23.5.346 1.05.346 1.65 0 .437-.06.86-.182 1.266-.12.408-.326.813-.61 1.213-.283.402-.665.806-1.144 1.214-.48.41-1.08.837-1.794 1.285l-3.47 2.22h5.65l-.872 3.2h-11.25l.832-3.06" fill="#FFF"/></g></svg>