<?xml version="1.0" encoding="utf-8"?>
<!-- Generator: Adobe Illustrator 16.0.0, SVG Export Plug-In . SVG Version: 6.00 Build 0)  -->
<!DOCTYPE svg PUBLIC "-//W3C//DTD SVG 1.1//EN" "http://www.w3.org/Graphics/SVG/1.1/DTD/svg11.dtd">
<svg version="1.1" id="Layer_1" xmlns="http://www.w3.org/2000/svg" xmlns:xlink="http://www.w3.org/1999/xlink" x="0px" y="0px"
	 width="90px" height="30px" viewBox="0 0 90 30" enable-background="new 0 0 90 30" xml:space="preserve">
<g>
	<path fill="#231F20" d="M14.6113,18.752c-1.0381,0.5547-2.2012,0.832-3.4844,0.832c-0.6514,0-1.2471-0.1035-1.7925-0.3164
		c-0.543-0.209-1.0093-0.5059-1.4033-0.8906c-0.3916-0.3848-0.6992-0.8457-0.9204-1.3867c-0.2236-0.5371-0.334-1.1382-0.334-1.7944
		c0-0.6753,0.1104-1.2881,0.334-1.8384c0.2212-0.5522,0.5288-1.021,0.9204-1.4102c0.394-0.3892,0.8604-0.6875,1.4033-0.8989
		c0.5454-0.209,1.1411-0.3145,1.7925-0.3145c0.6416,0,1.2446,0.0767,1.8071,0.2329c0.562,0.1538,1.0669,0.4302,1.5112,0.8267
		l-1.1079,1.1172c-0.269-0.2617-0.5957-0.4639-0.98-0.6079c-0.3848-0.1416-0.7905-0.2114-1.2207-0.2114
		c-0.4351,0-0.8291,0.0747-1.1826,0.2305c-0.353,0.1538-0.6558,0.3701-0.9106,0.6416c-0.252,0.2739-0.4492,0.5938-0.5884,0.959
		c-0.1396,0.3652-0.207,0.7568-0.207,1.1772c0,0.4517,0.0674,0.8677,0.207,1.25c0.1392,0.3789,0.3364,0.709,0.5884,0.9863
		c0.2549,0.2773,0.5576,0.4961,0.9106,0.6543c0.3535,0.1582,0.7476,0.2383,1.1826,0.2383c0.3818,0,0.7397-0.0371,1.0786-0.1094
		c0.3364-0.0684,0.6343-0.1816,0.8965-0.3301v-1.9878h-1.7256v-1.355h3.2251V18.752z"/>
	<polygon fill="#231F20" points="19.8086,16.7168 17.8721,14.7803 18.8042,13.8501 19.8086,14.8545 24.1411,10.5244 
		25.0708,11.4546 	"/>
	<path fill="#231F20" d="M19.5488,19.6602c-2.4268,0-4.397-1.9727-4.397-4.397c0-2.4248,1.9702-4.3975,4.397-4.3975
		c0.8076,0,1.5957,0.2212,2.2827,0.6392l-0.6846,1.1245c-0.4805-0.293-1.0332-0.4468-1.5981-0.4468
		c-1.6987,0-3.0801,1.3818-3.0801,3.0806c0,1.6978,1.3813,3.0806,3.0801,3.0806c1.6992,0,3.0781-1.3828,3.0781-3.0806
		c0-0.2739-0.0337-0.5454-0.103-0.8076l1.271-0.3433c0.0986,0.3721,0.1514,0.7593,0.1514,1.1509
		C23.9463,17.6875,21.9736,19.6602,19.5488,19.6602"/>
	<path fill="#231F20" d="M15.3032,0.918c-7.7637,0-14.0835,6.3169-14.0835,14.0811c0,7.7666,6.3198,14.085,14.0835,14.085
		c7.7661,0,14.083-6.3184,14.083-14.085C29.3862,7.2349,23.0693,0.918,15.3032,0.918 M15.3032,30
		c-8.271,0-14.999-6.7285-14.999-15.001C0.3042,6.728,7.0322,0,15.3032,0c8.2729,0,15.001,6.728,15.001,14.999
		C30.3042,23.2715,23.5762,30,15.3032,30"/>
</g>
<path fill="#231F20" d="M43.3384,13.3979c-0.2856,0-0.543,0.0483-0.7734,0.1396c-0.231,0.0933-0.4277,0.2231-0.5913,0.3867
	c-0.166,0.1655-0.293,0.3652-0.3867,0.6006c-0.0938,0.2329-0.1396,0.4951-0.1396,0.7788c0,0.2568,0.0459,0.4951,0.1396,0.7178
	c0.0938,0.2217,0.2231,0.416,0.394,0.5869c0.168,0.168,0.3677,0.2998,0.5981,0.3994c0.2305,0.0957,0.4805,0.1465,0.7451,0.1465
	c0.293,0,0.5571-0.0508,0.793-0.1465c0.2354-0.0996,0.4346-0.2314,0.5981-0.3945c0.1655-0.1641,0.2905-0.3613,0.3794-0.5918
	c0.0894-0.2305,0.1323-0.4805,0.1323-0.7471c0-0.5571-0.168-1.0112-0.5044-1.3574S43.9224,13.3979,43.3384,13.3979 M46.7456,12.1221
	v5.8154c0,0.5762-0.0718,1.0977-0.2139,1.5645c-0.1416,0.4648-0.3604,0.8613-0.6582,1.1836
	c-0.2979,0.3242-0.6729,0.5771-1.1245,0.7549c-0.4541,0.1748-0.9902,0.2646-1.6099,0.2646c-0.5962,0-1.1582-0.0742-1.6919-0.2266
	c-0.5332-0.1504-1.0234-0.4248-1.4775-0.8262l0.9585-1.3027c0.3198,0.291,0.6538,0.5195,0.9976,0.6777
	c0.3457,0.1611,0.7471,0.2402,1.1987,0.2402c0.3823,0,0.7041-0.0527,0.9658-0.1602c0.2622-0.1064,0.4688-0.2529,0.625-0.4375
	c0.1538-0.1875,0.2666-0.4111,0.334-0.6738c0.0649-0.2617,0.0986-0.5527,0.0986-0.8711v-0.4668h-0.0264
	c-0.231,0.3105-0.5361,0.543-0.918,0.6992c-0.3823,0.1562-0.7739,0.2334-1.1729,0.2334c-0.478,0-0.9131-0.0869-1.3047-0.2598
	c-0.3892-0.1729-0.7231-0.4062-1.0044-0.6992c-0.2788-0.293-0.4951-0.6396-0.6465-1.0381s-0.2256-0.8262-0.2256-1.2783
	c0-0.4707,0.0718-0.9082,0.2139-1.3169c0.1416-0.4082,0.3506-0.7642,0.6245-1.0645c0.2764-0.3027,0.6055-0.5405,0.9927-0.7134
	c0.3867-0.1733,0.8262-0.2598,1.3237-0.2598c0.4541,0,0.8745,0.0889,1.2666,0.2671c0.3892,0.1777,0.6992,0.4609,0.9297,0.8525
	h0.0264v-0.9585H46.7456z"/>
<path fill="#231F20" d="M49.5669,15.3154c0,0.25,0.043,0.4873,0.127,0.7188c0.0845,0.2305,0.2095,0.4346,0.3726,0.6123
	c0.1636,0.1777,0.3628,0.3203,0.5938,0.4258c0.2305,0.1055,0.4927,0.1602,0.7832,0.1602c0.293,0,0.5552-0.0547,0.7856-0.1602
	c0.231-0.1055,0.4302-0.248,0.5938-0.4258c0.1631-0.1777,0.2881-0.3818,0.3721-0.6123c0.0845-0.2314,0.1274-0.4688,0.1274-0.7188
	c0-0.2476-0.043-0.4878-0.1274-0.7183c-0.084-0.231-0.209-0.4351-0.3721-0.6128c-0.1636-0.1777-0.3628-0.3198-0.5938-0.4253
	c-0.2305-0.1084-0.4927-0.1611-0.7856-0.1611c-0.2905,0-0.5527,0.0527-0.7832,0.1611c-0.231,0.1055-0.4302,0.2476-0.5938,0.4253
	c-0.1631,0.1777-0.2881,0.3818-0.3726,0.6128C49.6099,14.8276,49.5669,15.0679,49.5669,15.3154 M47.9688,15.3154
	c0-0.5068,0.0913-0.9658,0.2739-1.377c0.1826-0.4131,0.4277-0.7666,0.7402-1.0596c0.3101-0.2905,0.6777-0.519,1.105-0.6777
	c0.4258-0.1606,0.8774-0.2402,1.3555-0.2402c0.4805,0,0.9321,0.0796,1.3574,0.2402c0.4277,0.1587,0.7954,0.3872,1.1055,0.6777
	c0.3125,0.293,0.5576,0.6465,0.7402,1.0596c0.1802,0.4111,0.2715,0.8701,0.2715,1.377c0,0.5049-0.0913,0.9658-0.2715,1.377
	c-0.1826,0.4131-0.4277,0.7666-0.7402,1.0596c-0.3101,0.293-0.6777,0.5195-1.1055,0.6777c-0.4253,0.1611-0.877,0.2402-1.3574,0.2402
	c-0.478,0-0.9297-0.0791-1.3555-0.2402c-0.4272-0.1582-0.7949-0.3848-1.105-0.6777c-0.3125-0.293-0.5576-0.6465-0.7402-1.0596
	C48.0601,16.2812,47.9688,15.8203,47.9688,15.3154"/>
<polygon fill="#231F20" points="54.7451,12.1221 56.4893,12.1221 58.1929,16.5938 58.2197,16.5938 59.9351,12.1221 61.5737,12.1221 
	59.0581,18.5117 57.3545,18.5117 "/>
<path fill="#231F20" d="M62.3452,17.002l2.6094-2.3447c0.1323-0.1201,0.2646-0.2573,0.3989-0.4087
	c0.1323-0.1514,0.1997-0.3267,0.1997-0.5308c0-0.2261-0.082-0.4062-0.2476-0.5361c-0.1636-0.1299-0.3579-0.1943-0.5791-0.1943
	c-0.2666,0-0.4736,0.0815-0.6226,0.2471c-0.1489,0.1636-0.2329,0.3652-0.2495,0.606l-1.4253-0.1035
	c0.022-0.3486,0.0938-0.6489,0.2188-0.9058c0.1274-0.2573,0.2954-0.4712,0.5049-0.6416c0.2065-0.1709,0.4541-0.2979,0.7349-0.3823
	c0.2812-0.0864,0.5864-0.1294,0.9155-0.1294c0.3027,0,0.5889,0.043,0.853,0.1294c0.2671,0.0845,0.4976,0.2114,0.6948,0.3774
	c0.1943,0.168,0.3481,0.3794,0.4585,0.6318c0.1108,0.2524,0.166,0.5479,0.166,0.8818c0,0.2163-0.0215,0.4111-0.0649,0.584
	c-0.0454,0.1753-0.1079,0.3315-0.1875,0.4736c-0.0767,0.144-0.1704,0.2739-0.2788,0.396c-0.1079,0.1206-0.2256,0.2358-0.3506,0.3511
	l-2.04,1.7539h2.9795v1.2549h-4.688V17.002z"/>
<path fill="#231F20" d="M71.7622,13.3979c-0.2861,0-0.543,0.0483-0.7739,0.1396c-0.2305,0.0933-0.4277,0.2231-0.5908,0.3867
	c-0.166,0.1655-0.2935,0.3652-0.3872,0.6006c-0.0938,0.2329-0.1392,0.4951-0.1392,0.7788c0,0.2568,0.0454,0.4951,0.1392,0.7178
	c0.0938,0.2217,0.2236,0.416,0.394,0.5869c0.1685,0.168,0.3677,0.2998,0.5986,0.3994c0.2305,0.0957,0.4805,0.1465,0.7446,0.1465
	c0.2935,0,0.5576-0.0508,0.793-0.1465c0.2358-0.0996,0.4351-0.2314,0.5986-0.3945c0.1631-0.1641,0.2905-0.3613,0.3794-0.5918
	s0.1323-0.4805,0.1323-0.7471c0-0.5571-0.1685-1.0112-0.5049-1.3574S72.3462,13.3979,71.7622,13.3979 M75.1694,12.1221v5.8154
	c0,0.5762-0.0723,1.0977-0.2139,1.5645c-0.1416,0.4648-0.3604,0.8613-0.6582,1.1836c-0.2983,0.3242-0.6729,0.5771-1.1245,0.7549
	c-0.4546,0.1748-0.9902,0.2646-1.6104,0.2646c-0.5957,0-1.1582-0.0742-1.6914-0.2266c-0.5337-0.1504-1.0234-0.4248-1.478-0.8262
	l0.959-1.3027c0.3198,0.291,0.6538,0.5195,0.9971,0.6777c0.3462,0.1611,0.7476,0.2402,1.1992,0.2402
	c0.3818,0,0.7017-0.0527,0.9658-0.1602c0.2622-0.1064,0.4688-0.2529,0.625-0.4375c0.1538-0.1875,0.2666-0.4111,0.334-0.6738
	c0.0649-0.2617,0.0981-0.5527,0.0981-0.8711v-0.4668h-0.0264c-0.2305,0.3105-0.5356,0.543-0.918,0.6992
	c-0.3818,0.1562-0.7734,0.2334-1.1724,0.2334c-0.478,0-0.9131-0.0869-1.3047-0.2598c-0.3892-0.1729-0.7256-0.4062-1.0044-0.6992
	s-0.4951-0.6396-0.6465-1.0381s-0.2261-0.8262-0.2261-1.2783c0-0.4707,0.0723-0.9082,0.2139-1.3169
	c0.1421-0.4082,0.3511-0.7642,0.625-1.0645c0.2764-0.3027,0.6055-0.5405,0.9922-0.7134c0.3872-0.1733,0.8267-0.2598,1.3242-0.2598
	c0.4541,0,0.8745,0.0889,1.2637,0.2671c0.3916,0.1777,0.7017,0.4609,0.9326,0.8525h0.0264v-0.9585H75.1694z"/>
<path fill="#231F20" d="M77.9902,15.3154c0,0.25,0.043,0.4873,0.127,0.7188c0.084,0.2305,0.207,0.4346,0.373,0.6123
	c0.1641,0.1777,0.3633,0.3203,0.5938,0.4258s0.4922,0.1602,0.7832,0.1602c0.293,0,0.5547-0.0547,0.7852-0.1602
	s0.4307-0.248,0.5938-0.4258c0.1641-0.1777,0.2891-0.3818,0.373-0.6123c0.084-0.2314,0.127-0.4688,0.127-0.7188
	c0-0.2476-0.043-0.4878-0.127-0.7183c-0.084-0.231-0.209-0.4351-0.373-0.6128c-0.1631-0.1777-0.3633-0.3198-0.5938-0.4253
	c-0.2305-0.1084-0.4922-0.1611-0.7852-0.1611c-0.291,0-0.5527,0.0527-0.7832,0.1611c-0.2305,0.1055-0.4297,0.2476-0.5938,0.4253
	c-0.166,0.1777-0.2891,0.3818-0.373,0.6128C78.0332,14.8276,77.9902,15.0679,77.9902,15.3154 M76.3945,15.3154
	c0-0.5068,0.0898-0.9658,0.2715-1.377c0.1836-0.4131,0.4277-0.7666,0.7383-1.0596c0.3125-0.2905,0.6797-0.519,1.1074-0.6777
	c0.4229-0.1606,0.877-0.2402,1.3555-0.2402c0.4805,0,0.9316,0.0796,1.3574,0.2402c0.4277,0.1587,0.7949,0.3872,1.1055,0.6777
	c0.3125,0.293,0.5576,0.6465,0.7402,1.0596c0.1797,0.4111,0.2715,0.8701,0.2715,1.377c0,0.5049-0.0918,0.9658-0.2715,1.377
	c-0.1826,0.4131-0.4277,0.7666-0.7402,1.0596c-0.3105,0.293-0.6777,0.5195-1.1055,0.6777c-0.4258,0.1611-0.877,0.2402-1.3574,0.2402
	c-0.4785,0-0.9326-0.0791-1.3555-0.2402c-0.4277-0.1582-0.7949-0.3848-1.1074-0.6777c-0.3105-0.293-0.5547-0.6465-0.7383-1.0596
	C76.4844,16.2812,76.3945,15.8203,76.3945,15.3154"/>
</svg>
