<svg xmlns="http://www.w3.org/2000/svg" width="150" height="200" viewBox="0 0 150 200"><path fill="#0d9bd3" d="M71.623 85.772c-4.726 2.525-10.01 3.787-15.854 3.787-2.96 0-5.68-.48-8.15-1.44-2.47-.96-4.6-2.31-6.388-4.06-1.786-1.75-3.184-3.85-4.194-6.306-1.01-2.453-1.515-5.176-1.515-8.17 0-3.066.505-5.85 1.515-8.36 1.01-2.507 2.41-4.645 4.196-6.41 1.79-1.768 3.914-3.13 6.386-4.086 2.478-.954 5.19-1.434 8.148-1.434 2.92 0 5.66.35 8.223 1.056 2.564.703 4.85 1.957 6.875 3.76l-5.03 5.087c-1.228-1.19-2.716-2.11-4.465-2.76-1.75-.65-3.6-.974-5.548-.974-1.985 0-3.78.35-5.384 1.053-1.608.702-2.987 1.676-4.14 2.92-1.156 1.245-2.05 2.697-2.68 4.355-.63 1.66-.947 3.447-.947 5.36 0 2.055.318 3.95.95 5.68.637 1.73 1.53 3.23 2.687 4.49 1.152 1.264 2.53 2.257 4.138 2.978 1.605.72 3.4 1.08 5.385 1.08 1.73 0 3.36-.163 4.895-.488 1.534-.326 2.897-.83 4.088-1.515v-9.03h-7.85v-6.17h14.665v19.59zm23.643-9.252l-8.81-8.808 4.236-4.237 4.574 4.574 19.704-19.71 4.232 4.23"/><path fill="#0d9bd3" d="M94.082 89.905c-11.03 0-20.003-8.974-20.003-20.004s8.97-20 20-20c3.67 0 7.26 1.01 10.39 2.91l-3.12 5.12c-2.188-1.33-4.7-2.03-7.277-2.03-7.728 0-14.013 6.285-14.013 14.01s6.286 14.014 14.013 14.014c7.724 0 14.01-6.287 14.01-14.013 0-1.245-.16-2.48-.483-3.667l5.784-1.566c.46 1.697.695 3.457.695 5.23 0 11.03-8.977 20.005-20.006 20.005"/><path fill="#0d9bd3" d="M74.774 4.647c-35.323 0-64.06 28.737-64.06 64.06 0 35.323 28.737 64.063 64.06 64.063 35.323 0 64.062-28.74 64.062-64.063 0-35.323-28.74-64.06-64.062-64.06m0 132.293c-37.625 0-68.234-30.608-68.234-68.233C6.54 31.084 37.15.474 74.774.474c37.624 0 68.235 30.61 68.235 68.233 0 37.625-30.62 68.233-68.24 68.233m-60.68 32.638c-.96 0-1.84.157-2.62.473-.78.32-1.45.76-2.004 1.31-.556.56-.99 1.24-1.307 2.03-.315.8-.473 1.68-.473 2.64 0 .87.16 1.68.475 2.434.315.75.758 1.41 1.33 1.98.57.574 1.245 1.02 2.026 1.354.785.33 1.63.495 2.53.495.99 0 1.883-.164 2.68-.494.793-.33 1.47-.774 2.025-1.33.557-.557.984-1.224 1.286-2.005.3-.78.45-1.62.45-2.525 0-1.89-.57-3.424-1.71-4.596-1.144-1.175-2.704-1.76-4.687-1.76m11.54-4.326v19.69c0 1.954-.243 3.72-.723 5.295-.48 1.577-1.224 2.913-2.23 4.01-1.006 1.095-2.277 1.943-3.81 2.545-1.532.6-3.35.9-5.45.9-2.014 0-3.92-.255-5.723-.764-1.802-.51-3.47-1.44-5.003-2.79l3.246-4.42c1.08.994 2.21 1.76 3.38 2.3 1.17.54 2.525.81 4.055.81 1.29 0 2.38-.177 3.27-.54.884-.36 1.59-.856 2.116-1.487.528-.63.906-1.39 1.128-2.273.225-.89.338-1.874.338-2.954V184h-.088c-.78 1.052-1.82 1.84-3.11 2.365-1.295.526-2.618.79-3.968.79-1.624 0-3.095-.294-4.416-.878-1.324-.587-2.46-1.377-3.405-2.37-.948-.99-1.676-2.16-2.187-3.51-.51-1.355-.766-2.795-.766-4.328 0-1.59.24-3.08.72-4.46s1.187-2.59 2.12-3.61c.93-1.02 2.048-1.83 3.355-2.41 1.308-.59 2.8-.88 4.485-.88 1.53 0 2.96.3 4.28.9 1.324.6 2.375 1.56 3.156 2.882h.09v-3.246h5.137zm9.55 10.813c0 .84.143 1.65.428 2.43.287.78.707 1.474 1.264 2.074.554.603 1.222 1.08 2.002 1.444.78.36 1.667.54 2.66.54.99 0 1.876-.18 2.657-.54.782-.363 1.45-.84 2.006-1.443.555-.6.974-1.29 1.26-2.07.286-.78.43-1.59.43-2.435s-.144-1.65-.43-2.434c-.286-.78-.705-1.47-1.26-2.073-.557-.6-1.225-1.08-2.006-1.444-.78-.36-1.664-.54-2.656-.54-.99 0-1.878.18-2.66.54-.78.36-1.448.84-2.004 1.44-.557.6-.977 1.29-1.262 2.073-.285.78-.427 1.59-.427 2.433m-5.41 0c0-1.712.31-3.266.925-4.663.616-1.397 1.45-2.59 2.5-3.58 1.054-.993 2.3-1.76 3.743-2.3 1.442-.54 2.974-.81 4.595-.81 1.623 0 3.156.27 4.596.81 1.443.54 2.69 1.31 3.74 2.3 1.052.99 1.886 2.184 2.5 3.58.617 1.4.926 2.953.926 4.665 0 1.71-.31 3.266-.925 4.662-.617 1.4-1.45 2.59-2.5 3.585-1.05.992-2.3 1.757-3.74 2.298-1.444.54-2.976.813-4.598.813-1.62 0-3.154-.27-4.596-.81-1.442-.54-2.69-1.306-3.74-2.3-1.05-.99-1.886-2.183-2.5-3.58-.616-1.396-.925-2.952-.925-4.664m22.94-10.822h5.9l5.767 15.142h.09l5.813-15.142h5.542l-8.517 21.63h-5.77m16.897-5.11l8.835-7.935c.45-.405.9-.865 1.35-1.38.45-.513.674-1.114.674-1.798 0-.775-.275-1.38-.833-1.82-.556-.44-1.21-.66-1.96-.66-.897 0-1.6.28-2.103.838-.5.557-.785 1.24-.85 2.057l-4.82-.356c.066-1.175.31-2.2.74-3.065.43-.87.996-1.59 1.703-2.17.706-.576 1.535-1.01 2.487-1.3.956-.29 1.99-.434 3.1-.434 1.03 0 1.995.147 2.893.435.9.29 1.68.72 2.344 1.287.666.57 1.186 1.28 1.56 2.14.378.858.56 1.85.56 2.988 0 .727-.073 1.39-.22 1.976-.15.59-.36 1.125-.627 1.608s-.582.93-.95 1.33c-.36.41-.755.806-1.182 1.19l-6.907 5.944h10.08v4.24H78.44v-5.11zm31.875-12.194c-.96 0-1.833.156-2.613.472-.78.317-1.45.754-2.008 1.307-.554.56-.99 1.233-1.305 2.03-.313.8-.47 1.674-.47 2.636 0 .87.157 1.684.47 2.435.317.75.76 1.41 1.33 1.982.573.572 1.247 1.02 2.028 1.352.782.33 1.624.494 2.525.494.993 0 1.885-.162 2.68-.492.797-.33 1.473-.773 2.03-1.33.556-.556.984-1.223 1.287-2.004.298-.78.45-1.62.45-2.524 0-1.89-.573-3.424-1.713-4.596-1.14-1.173-2.7-1.758-4.688-1.758m11.535-4.326v19.69c0 1.956-.24 3.72-.72 5.297-.48 1.578-1.227 2.914-2.232 4.01-1.005 1.096-2.276 1.944-3.807 2.546-1.53.6-3.35.9-5.45.9-2.01 0-3.92-.254-5.72-.763-1.802-.51-3.47-1.443-5.004-2.794l3.25-4.415c1.08.993 2.207 1.758 3.38 2.3 1.17.54 2.522.81 4.052.81 1.294 0 2.383-.178 3.27-.54.885-.36 1.59-.857 2.116-1.488.526-.63.904-1.39 1.126-2.274.228-.89.34-1.875.34-2.955V184h-.09c-.78 1.052-1.816 1.84-3.11 2.365-1.29.526-2.614.79-3.963.79-1.622 0-3.092-.294-4.413-.878-1.32-.587-2.455-1.377-3.4-2.37-.947-.99-1.676-2.16-2.185-3.51-.515-1.355-.77-2.795-.77-4.328 0-1.59.24-3.08.72-4.46s1.188-2.59 2.12-3.61c.93-1.02 2.05-1.83 3.356-2.41 1.31-.59 2.8-.88 4.485-.88 1.53 0 2.957.3 4.28.9 1.32.6 2.37 1.56 3.153 2.882h.09v-3.246h5.14zm9.553 10.815c0 .843.142 1.654.425 2.433.286.78.707 1.472 1.26 2.072.56.6 1.228 1.08 2.008 1.44.783.36 1.668.54 2.66.54.99 0 1.875-.18 2.657-.54.782-.36 1.45-.84 2.005-1.44.556-.6.976-1.29 1.262-2.075.285-.78.427-1.59.427-2.43s-.14-1.65-.427-2.43-.707-1.47-1.263-2.075c-.555-.6-1.223-1.08-2.005-1.442-.782-.36-1.666-.54-2.658-.54s-1.878.18-2.66.54c-.78.363-1.45.843-2.007 1.442-.555.602-.976 1.292-1.26 2.074-.284.78-.428 1.59-.428 2.432m-5.41 0c0-1.712.31-3.266.922-4.663.617-1.397 1.45-2.59 2.5-3.58 1.055-.99 2.3-1.76 3.74-2.3 1.446-.54 2.978-.81 4.6-.81s3.153.27 4.594.81c1.44.54 2.69 1.31 3.74 2.3 1.05.99 1.883 2.184 2.5 3.58.615 1.4.923 2.953.923 4.665 0 1.713-.31 3.27-.925 4.665s-1.45 2.59-2.5 3.586c-1.054.99-2.3 1.756-3.74 2.297-1.444.54-2.976.813-4.598.813s-3.156-.27-4.598-.81c-1.446-.54-2.69-1.306-3.74-2.3-1.056-.99-1.89-2.183-2.506-3.58-.615-1.396-.924-2.952-.924-4.664"/></svg>