<?xml version="1.0" standalone="no"?>
<!DOCTYPE svg PUBLIC "-//W3C//DTD SVG 20010904//EN"
 "http://www.w3.org/TR/2001/REC-SVG-20010904/DTD/svg10.dtd">
<svg version="1.0" xmlns="http://www.w3.org/2000/svg"
 width="260.000000pt" height="260.000000pt" viewBox="0 0 260.000000 260.000000"
 preserveAspectRatio="xMidYMid meet">
<metadata>
Created by potrace 1.11, written by Peter Selinger 2001-2013
</metadata>
<g transform="translate(0.000000,260.000000) scale(0.100000,-0.100000)"
fill="#000000" stroke="none">
<path d="M1125 2589 c-154 -21 -351 -89 -479 -166 -326 -196 -543 -502 -623
-876 -24 -114 -24 -380 0 -494 58 -271 168 -475 362 -668 193 -194 397 -304
668 -362 114 -24 380 -24 494 0 271 58 475 168 668 362 194 193 304 397 362
668 25 116 24 380 -1 496 -59 273 -167 473 -361 666 -192 193 -399 305 -663
360 -92 20 -330 28 -427 14z m356 -84 c259 -39 491 -156 679 -345 100 -100
165 -188 226 -308 205 -401 169 -889 -92 -1259 -62 -87 -200 -225 -287 -287
-370 -261 -858 -297 -1259 -92 -120 61 -208 126 -308 226 -100 100 -165 188
-226 308 -205 401 -169 889 92 1259 62 87 200 225 287 287 256 181 579 258
888 211z"/>
<path d="M2000 1615 c-140 -140 -259 -255 -265 -255 -5 0 -34 25 -65 55 l-56
55 -54 -55 -55 -55 115 -115 115 -115 315 315 315 315 -55 55 -55 55 -255
-255z"/>
<path d="M580 1833 c-43 -7 -143 -45 -182 -69 -101 -64 -173 -160 -210 -278
-30 -95 -31 -255 -4 -336 56 -165 149 -265 301 -325 152 -60 414 -40 598 45
l27 13 0 259 0 258 -190 0 -190 0 0 -80 0 -80 100 0 101 0 -3 -122 -3 -122
-50 -19 c-77 -28 -209 -34 -280 -11 -210 66 -306 322 -200 534 29 57 102 125
163 152 102 45 265 30 352 -33 22 -16 43 -29 48 -29 4 0 36 29 71 64 l63 63
-34 26 c-82 63 -211 97 -358 95 -52 0 -106 -3 -120 -5z"/>
<path d="M1635 1824 c-226 -48 -380 -182 -439 -383 -23 -77 -21 -204 4 -284
29 -93 65 -153 135 -223 228 -230 610 -198 798 68 72 102 90 163 91 300 1 66
-3 121 -9 126 -6 6 -37 2 -80 -10 l-70 -19 3 -72 c8 -157 -65 -282 -208 -354
-49 -25 -65 -28 -155 -28 -87 0 -107 3 -157 27 -73 34 -142 103 -176 176 -24
50 -27 70 -27 157 0 91 3 105 29 158 75 147 239 229 397 198 35 -7 76 -19 91
-27 15 -8 29 -14 32 -14 7 0 76 116 76 128 0 14 -92 51 -169 68 -64 13 -125
16 -166 8z"/>
</g>
</svg>
