<svg xmlns="http://www.w3.org/2000/svg" width="182" height="182" viewBox="0 0 182 182"><g fill="#FFF"><path d="M11.61 0L0 11.578v2.372L13.95 0m20.34 0l-5.915 6.372L22.208.205 21.023 1.39l7.352 7.352L36.66 0M0 34.29v2.37l24.187-23.73L23 11.745M56.972 0L0 56.97v2.37L59.343 0m20.31 0L0 79.654v2.37L82.023 0m20.342 0l-73.99 74.447-6.166-6.168-1.19 1.18 7.35 7.35L104.73 0M0 102.364v2.37l24.187-23.73L23 79.82M125.046 0L87.644 37.86l-6.167-6.167-1.185 1.186 7.352 7.35L127.454 0M0 125.046v2.37l83.455-82.998-1.185-1.185M147.73 0l-2.3 2.783L142.676 0h-2.372l5.128 5.153L150.1 0M0 147.73v2.37L141.243 9.34l-1.184-1.185M170.87 0L28.376 142.52l-6.166-6.165-1.187 1.185 7.352 7.353L173.24 0M0 170.897v2.37l24.187-24.187L23 147.895M182 11.578l-94.356 94.358-6.167-6.168-1.185 1.186 7.352 7.353L182 13.95M11.61 182h2.34l69.505-69.507-1.185-1.184M182 34.29l-36.57 36.568-6.166-6.167-1.186 1.19 7.353 7.35L182 36.66M34.29 182h2.37L141.242 77.416l-1.184-1.184M59.342 182L182 59.34v-2.37L56.972 182"/><path stroke="#000" d="M263.938.026l.03.03.03-.03z"/><path d="M81.477 167.844l-1.186 1.184 7.36 7.353L182 82.03v-2.37l-94.356 94.35m-7.99 7.99h2.37l1.43-1.432-1.184-1.185m99.73-77.02l-36.57 36.57-6.166-6.167-1.185 1.185 7.35 7.36L182 104.74M102.36 182h2.37l36.508-36.51-1.183-1.183M127.452 182L182 127.416v-2.37L125.046 182m25.054 0l31.9-31.9v-2.37L147.73 182"/></g></svg>